<?xml version="1.0" encoding="utf-8"?>
<!-- Generator: Adobe Illustrator 16.0.0, SVG Export Plug-In . SVG Version: 6.00 Build 0)  -->
<!DOCTYPE svg PUBLIC "-//W3C//DTD SVG 1.1//EN" "http://www.w3.org/Graphics/SVG/1.1/DTD/svg11.dtd">
<svg version="1.1" xmlns="http://www.w3.org/2000/svg" xmlns:xlink="http://www.w3.org/1999/xlink" x="0px" y="0px" width="91px"
	 height="96px" viewBox="0 0 91 96" enable-background="new 0 0 91 96" xml:space="preserve">
<g id="Background" display="none">
	
		<rect x="-637" y="-666.92" display="inline" fill-rule="evenodd" clip-rule="evenodd" fill="#FFFFFF" width="799.92" height="799.92"/>
</g>
<g id="Objects">
	<path opacity="0.4" fill-rule="evenodd" clip-rule="evenodd" fill="#333333" d="M5.271-356.128h11.723v4.323v17.957v4.322H5.271
		c-6.161,0-11.2-5.04-11.2-11.201v-4.2C-5.929-351.088-0.89-356.128,5.271-356.128L5.271-356.128z M-53.85,133V21.379l3.103,43.205
		c0.148,2.039-0.257,3.994-1.084,5.727l5.406-1.719l8.378,26.353l3.844-1.223L-21.555,133H-53.85L-53.85,133z M-53.85-69.455
		v-167.879l0,0h3.579l0.11,0.002l0.11,0.004l0.108,0.007l0.108,0.01l0.107,0.013l0.107,0.015l0.105,0.018l0,0l0.105,0.021
		l0.104,0.022l0.104,0.025l0.103,0.028l0.101,0.03l0.101,0.032l0,0l0.099,0.035l0.099,0.038l0.097,0.039l0,0l0.096,0.042l0,0
		l0.095,0.044v0.001l0.093,0.046l0,0l0.092,0.049l0.091,0.051l0,0l0.089,0.053l0.088,0.056l0.087,0.057l0,0l0.085,0.059l0,0
		l0.083,0.062l0.082,0.062h0.001l0.08,0.065l0.078,0.066l0.077,0.068h0.001l0.075,0.07l0.073,0.072h0.001l0.071,0.074l0.07,0.075
		l0.069,0.077l0.066,0.079l0,0l0.064,0.08l0.063,0.082l0.061,0.084l0,0l0.06,0.085l0,0l0.057,0.087l0.055,0.087l0.053,0.09h0.001
		l0.051,0.091l0.048,0.092h0.001c0.031,0.062,0.062,0.124,0.09,0.188l0.042,0.096l0.04,0.097l0,0l0.037,0.099h0.001l0.034,0.099
		l0.033,0.101l0,0l0.03,0.101l0,0c0.02,0.068,0.037,0.137,0.053,0.205v0.001l0.023,0.104l0,0l0.02,0.105l0,0l0.018,0.105h0.001
		c0.011,0.071,0.02,0.143,0.027,0.215c0.007,0.071,0.013,0.144,0.017,0.217l0,0l0.004,0.11l0.002,0.109v0.001v6.324v5.023v134.371
		l-0.001,0.001h0.001L-53.85-69.455L-53.85-69.455L-53.85-69.455z M-53.85-272.39v-51.326l22.808,36.044
		c6.369,10.065,5.135,15.282-4.943,15.282H-53.85L-53.85-272.39z M25.929,31.259L25.929,31.259v-6.521h54.398v36.31l0,0v18.089l0,0
		H68.695H25.929V31.259L25.929,31.259z M5.957-129.826l-0.626-2.889c-0.401-1.854,0.787-3.699,2.641-4.101l5.207-1.128
		c-2.954-22.507,11.806-43.891,34.389-48.783c23.799-5.155,47.271,9.959,52.427,33.759c5.155,23.799-9.959,47.271-33.758,52.427
		C44.479-95.828,23-108.057,15.533-128.372l-5.476,1.187C8.204-126.784,6.358-127.973,5.957-129.826L5.957-129.826z
		 M118.557-237.334v21.207H-12.3l-0.001-21.207h56.89h3.21h2.49h5.679h2.49h5.678h2.491h5.678h2.491h5.678h2.49h5.679h2.49h5.679
		h2.49h5.679h2.49h4.098H118.557L118.557-237.334z M136.852-407.31L136.852-407.31v6.521H82.453v-36.31l0,0v-18.09l0,0h11.632
		h42.767V-407.31L136.852-407.31z M10.396-508.338L10.396-508.338l-0.001,56.309v1.952c0,1.257-1.028,2.285-2.285,2.285H7.848
		c0,3.681-4.193,6.112-5.377,6.112H2.195v4.769c0,0.661-0.484,1.215-1.116,1.322v6.503c0,0.533-0.437,0.625-0.97,0.203l-3.88-3.069
		c-0.533-0.422-0.97-1.203-0.97-1.736v-1.9c-0.631-0.108-1.116-0.661-1.116-1.322v-4.769h-0.275c-1.183,0-5.376-2.431-5.376-6.112
		h-0.263c-1.257,0-2.285-1.028-2.285-2.285l0.001-59.271c0-1.257,1.028-2.284,2.285-2.284h0.262c0-1.775,1.452-3.227,3.226-3.227
		H4.623c1.772,0.001,3.225,1.452,3.226,3.227H8.11c1.257,0,2.285,1.028,2.285,2.285V-508.338L10.396-508.338z M-11.662-397.066
		v0.188c0,1.011,0.827,1.838,1.838,1.838H6.162c1.012,0,1.838-0.826,1.838-1.838v-0.188h0.109c1.257,0,2.285-1.027,2.285-2.284
		v-22.007c0-1.257-1.028-2.285-2.285-2.285h-19.88c-1.257,0-2.285,1.027-2.285,2.284v22.007c0,1.257,1.028,2.285,2.285,2.285
		H-11.662L-11.662-397.066z M42.783-411.768l-4.255-9.077v-39.977c0,0,1.132-2.264,2.834-3.682v33.166c0,0,0.507,0.39,1.421,0.882
		l-0.001-112.576c0-1.664,0.552-3.2,1.484-4.435v-4.009c-0.001-3.995,1.967-7.328,4.595-8.144v-3.104
		c0-0.711,0.569-1.283,1.277-1.282c0.706,0,1.275,0.571,1.275,1.282v3.12c2.601,0.843,4.54,4.158,4.54,8.127v3.9
		c0.981,1.252,1.566,2.829,1.566,4.543l0.001,113.096c0.188-0.084,0.379-0.171,0.569-0.264v18.709c0,0-0.201,0.115-0.569,0.289
		v1.131c0,1.716-0.585,3.293-1.566,4.544v2.149c0,4.604-2.613,8.337-5.843,8.337c-3.228,0-5.845-3.732-5.846-8.337v-2.259
		c-0.931-1.233-1.483-2.769-1.483-4.435V-411.768L42.783-411.768z M42.167-348.962H28.43v13.944h13.737v1.17v4.322h38.954
		c6.16,0,11.2-5.04,11.2-11.201v-4.2c0-6.161-5.04-11.201-11.2-11.201H42.167v4.323V-348.962L42.167-348.962z M125.938-478.2
		l-32.658-0.025c-6.193-0.005-11.257-5.076-11.252-11.27l0.068-87.838c0.005-6.193,5.076-11.257,11.271-11.252l32.657,0.025
		c6.193,0.005,11.257,5.076,11.252,11.27l-0.068,87.838C137.203-483.259,132.132-478.195,125.938-478.2L125.938-478.2z
		 M53.02-48.449c-3.84,0.034-19.619-4.406-30.809-5.473c-11.2-1.069-27.854,0.096-30.739,0.979
		c-3.449,1.058-3.552,1.337-3.739,3.946s0.212,4.856,2.232,5.56c2.581,0.898,2.724,4.025,4.122,12.699
		c-1.165,3.921-1.443,7.845-1.475,10.287c-0.062,4.693,4.362,6.729,6.169,2.218c3.241,3.759,8.741,6.403,18.412,7.262
		c17.01,1.51,22.861-9.38,24.75-12.889c3.369-6.256,2.473-14.953,11.073-14.84c8.601,0.112,7.632,8.631,10.836,14.973
		c1.797,3.557,7.205,14.748,24.249,13.684c9.714-0.606,15.285-3.116,18.62-6.804c1.681,4.593,6.174,2.675,6.236-2.028
		c0.031-2.458-0.146-6.422-1.228-10.397c1.613-8.577,1.844-11.685,4.44-12.512c2.038-0.65,2.496-2.887,2.377-5.5
		c-0.12-2.613-0.215-2.895-3.635-4.042c-2.86-0.959-19.479-2.56-30.703-1.785C74.174-52.418,62.055-48.529,53.02-48.449z
		 M-53.85-323.716v51.326h-289.57v-60.105h244.642v-3.794H-343.42v-222.054h4.491c0.363-0.294,0.73-0.581,1.104-0.858l0.037-17.129
		l-5.526-0.012l0.04-18.46l-0.146-0.001v-72.117h30.022h35.834v72.261l-5.958-0.014l-0.041,18.461l-5.526-0.012l-0.033,15.064
		c1.571,0.837,3.004,1.775,4.26,2.816h129.449c1.182-0.933,2.51-1.778,3.954-2.539l0.033-15.044l-5.527-0.012l0.04-18.461
		l-5.958-0.013l-0.1-72.509h35.835h35.834l0.1,72.664l-5.958-0.013l-0.04,18.46l-5.527-0.012l-0.037,17.129
		c0.153,0.114,0.305,0.23,0.456,0.349h35.455c4.095,0,7.448,3.352,7.448,7.449v207.155c0,4.098-3.352,7.449-7.448,7.449h-15.6v3.794
		h23.048L-53.85-323.716L-53.85-323.716z M-53.85-237.334v167.879l-2.602-5.9l-5.272-11.963v-139.396v-6.324
		c0-2.363,1.933-4.296,4.295-4.296H-53.85L-53.85-237.334z M-53.85,21.379l-3.529-49.151c-0.469-6.424-5.973-11.381-12.41-10.992
		l0,0c-0.743,0.045-1.467,0.16-2.166,0.337l-0.049-0.662c-0.491-6.722-6.25-11.91-12.987-11.503l0,0
		c-1.97,0.119-3.813,0.704-5.425,1.641l-0.213-0.496c-0.377-1.972-1.178-3.786-2.302-5.346l-17.804-41.365v-141.175h-220.676V-47.3
		l-12.009,19.146V9.222l12.009-19.146l0,28.063l-12.01,6.818v27.01l12.01-8.05v30.848h220.676V62.286l2.214,6.962l0.904,12.48
		c0.151,2.093,0.774,4.046,1.759,5.758l-3.744,1.19l8.379,26.353l-4.307,1.369l5.357,16.602h46.322V21.379L-53.85,21.379z
		 M-343.42-39.547V-51.47c2.055,2.631,2.791,6.273,0.829,10.235L-343.42-39.547z M-343.42-666.92v72.117l-5.813-0.013v-72.104h0
		H-343.42L-343.42-666.92z M-343.42-558.343v222.054h-10.901v3.794h10.901v60.105h-73.055c-9.151,0-11.935-4.271-8.181-10.16
		l31.834-49.945h22.175v-3.794h-15.6c-4.097,0-7.449-3.354-7.449-7.449v-26.929c-21.564,5.361-44.667,8.296-65.351,7.145
		c-2.593-0.144-5.149-0.353-7.66-0.629v-2.523c2.553,0.285,5.155,0.5,7.799,0.647c20.632,1.147,43.711-1.819,65.212-7.218v-177.648
		c0-4.096,3.354-7.449,7.449-7.449H-343.42L-343.42-558.343z M-343.42-51.47v11.923l-14.099,28.685
		c0.586,0.827,1.138,1.676,1.655,2.547l12.444-19.839V9.222l-0.573,0.913c-3.206,5.896-6.942,13.129-11.438,21.643l12.01-6.819
		v27.01l-24.61,16.494c-3.362,2.253-7.694,3.255-12.507,3.287l-8.069,15.504l5.695,2.965l-13.155,26.018l5.863,3.052L-397.274,133
		h-69.433V85.975l2.645-5.13l6.418,3.341l13.155-26.018l5.695,2.964l9.188-17.651c-6.965-14.449-5.266-33.623,6.555-57.112
		l9.02-32.302c3.915-13.587,23.07-7.914,19.005,5.771l-3.999,13.466c0.828-0.382,1.927-0.616,2.939-0.779l10.609-25.591
		c5.339-13.257,22.994-4.215,18.602,6.965l-8.403,21.389c0.573,0.152,1.638,0.681,2.026,0.865l12.872-26.221
		C-356.537-57.896-347.445-56.624-343.42-51.47L-343.42-51.47z M-466.707-1.357l2.205-2.106l9.681-9.245h0l12.36-11.804
		l-19.919-20.856l-2.019,1.927l-2.31-1.378V-1.357L-466.707-1.357z M-466.707-95.151v-142.183h108.852v142.183H-466.707
		L-466.707-95.151z M-466.707-439.786c17.987-6.523,26.756-16.888,29.143-27.382c2.239-9.841-1.145-19.762-7.817-26.772
		c-5.377-5.649-12.894-9.416-21.326-9.732v2.508c7.708,0.318,14.583,3.777,19.508,8.952c6.123,6.434,9.233,15.513,7.19,24.494
		c-2.178,9.57-10.218,19.068-26.699,25.259V-439.786z M-466.707-503.673v2.508c-1.888-0.079-3.826,0.031-5.797,0.351
		c-13.889,2.25-29.484,14.83-41.302,44.911c-1.397,3.559-2.613,6.989-3.656,10.298c4.079,3.243,8.807,5.639,14.259,6.986
		c7.977,1.971,17.527,1.711,28.894-1.395c2.712-0.741,5.244-1.56,7.603-2.446v2.674c-2.18,0.79-4.494,1.524-6.949,2.195
		c-11.795,3.224-21.767,3.479-30.149,1.406c-5.479-1.354-10.27-3.698-14.439-6.854c-2.659,9.054-3.984,17.162-4.148,24.397v-18.503
		c0.577-2.461,1.257-4.994,2.044-7.601c-0.7-0.607-1.381-1.238-2.044-1.894v-3.629c0.914,1.018,1.868,1.984,2.864,2.897
		c0.985-3.05,2.113-6.197,3.389-9.445c12.204-31.062,28.569-44.097,43.232-46.472C-470.799-503.627-468.727-503.749-466.707-503.673
		L-466.707-503.673z M-466.707-366.675v2.523c-14.1-1.549-26.78-5.226-36.68-11.603c-8.944-5.763-15.61-13.705-19.006-24.239
		v-15.621c0.036,1.557,0.128,3.07,0.275,4.542c1.524,15.256,8.935,26.025,20.085,33.209
		C-492.541-371.749-480.329-368.199-466.707-366.675L-466.707-366.675z M-466.707-237.334v142.183h-55.686v-142.183H-466.707
		L-466.707-237.334z M-466.707-44.82v43.463l-3.562,3.402h0l-3.09,2.951h0l-12.361,11.805l0,0l-7.453,7.117l-7.997,7.637l0,0
		l-4.556,4.352l0.811,1.342l-1.351,0.815l0.396,1.416l-1.518,0.426l0.004,1.47l-1.58,0.005l-0.389,1.418l-1.521-0.417l-0.49,0.82
		c0.515,4.88,0.345,9.834-0.69,14.625c-1.478,6.84-4.403,14.494-9.883,19.143c-0.15,0.127-0.303,0.249-0.458,0.366v-2.831
		c1.5-1.449,2.795-3.184,3.531-4.44c4.8-8.189,6.447-17.589,5.487-26.854l-0.67,0.641l-0.658-0.688l-7.69,4.646V-57.567
		l10.669-0.029l0.55-2.004l0,0l0.188-0.688l23.888,6.551l1.43-2.397L-466.707-44.82L-466.707-44.82z M-466.707,85.975V133h-24.247
		L-466.707,85.975L-466.707,85.975z M-522.393-275.759v-87.153c17.509,2.713,32.375,15.896,36.35,34.248
		c5.155,23.799-9.958,47.271-33.758,52.426C-520.666-276.051-521.529-275.893-522.393-275.759L-522.393-275.759z M-522.393-544.879
		v-52.74c3.691,5.079,6.462,11.358,7.811,18.39C-511.991-565.717-515.307-552.843-522.393-544.879z M-522.393-597.619v52.74
		c-3.418,3.842-7.713,6.542-12.647,7.617l-0.009,0.003l-0.009,0.002l-0.009,0.002l-0.009,0.002h-0.002
		c-0.163,0.036-0.326,0.07-0.49,0.103l-0.01,0.002l-0.009,0.002l-0.009,0.002l-0.009,0.002c-0.171,0.032-0.343,0.062-0.515,0.09
		l-0.009,0.001l-0.01,0.002l-0.009,0.001l-0.009,0.002c-1.092,0.18-2.185,0.273-3.274,0.29c-1.754,20.3-1.162,42.06,3.762,60.074
		c2.612,9.562,6.442,18.048,11.784,24.66c0.485,0.601,0.983,1.187,1.494,1.756v3.629c-1.208-1.194-2.355-2.467-3.441-3.812
		c-5.58-6.907-9.562-15.704-12.26-25.578c-4.992-18.265-5.605-40.29-3.842-60.829c-13.223-1.281-25.382-14.12-28.737-31.614
		c-3.887-20.271,5.518-39.112,21.006-42.083C-539.55-612.495-529.341-607.184-522.393-597.619L-522.393-597.619z M-522.393-437.144
		v18.503c-0.023,1.026-0.023,2.035,0,3.026v15.621c-1.077-3.342-1.826-6.944-2.213-10.821
		C-525.373-418.487-524.717-427.23-522.393-437.144L-522.393-437.144z M-522.393-362.912v87.153
		c-20.85,3.246-40.941-8.801-48.111-28.31l-5.476,1.187c-1.854,0.401-3.699-0.787-4.1-2.641l-0.626-2.889
		c-0.401-1.854,0.787-3.699,2.64-4.101l5.208-1.128c-2.954-22.507,11.805-43.892,34.388-48.783
		C-533.021-363.603-527.591-363.718-522.393-362.912L-522.393-362.912z M-522.393-237.334v142.183h-58.391v-142.183H-522.393
		L-522.393-237.334z M-522.393-57.567V47.808l-7.055,4.262c0.166,0.203,0.24,0.481,0.146,0.816
		c-0.918,3.252-1.459,6.886-1.878,10.233c-0.425,3.412-0.968,7.632,0.267,10.944c1.872,5.023,5.588,3.274,8.52,0.44v2.831
		c-3.465,2.629-7.886,2.629-10.004-1.663c-1.689-3.426-1.248-7.915-0.877-11.562c0.391-3.839,1.011-7.988,2.057-11.697
		c0.195-0.689,0.891-0.84,1.397-0.62L-532.715,47l-0.923,0.259l-0.933-3.331l-1.495-2.475h-0.157l0-0.261l-2.58-4.27h-0.001
		l-8.838-14.628h0.001l-2.209-3.657h0l-5.404-8.945l-5.643-9.34l-0.001,0.001l-7.079-11.718l-3.968-6.567l-1.857-3.074
		l-6.613-10.945h0l-0.368-0.608l21.2-12.809l-0.561-2.003h0l-0.192-0.685l23.852-6.682l-0.008-2.792L-522.393-57.567z"/>
	<g>
		<g>
			<rect x="14.961" y="11.614" fill-rule="evenodd" clip-rule="evenodd" fill="#F2837B" width="54.398" height="54.398"/>
			<polygon fill-rule="evenodd" clip-rule="evenodd" fill="#F06358" points="69.359,47.924 69.359,66.013 57.728,66.013 			"/>
			<path fill-rule="evenodd" clip-rule="evenodd" fill="#FAA6A0" d="M69.359,47.924c-5.07,2.505-10.106,3.63-15.08,2.404
				c3.245,4.624,4.058,9.949,3.448,15.685L69.359,47.924z"/>
			<rect x="14.961" y="11.614" fill-rule="evenodd" clip-rule="evenodd" fill="#FAA6A0" width="54.398" height="6.521"/>
		</g>
	</g>
	<rect id="_x3C_Slice_x3E__2_" fill-rule="evenodd" clip-rule="evenodd" fill="none" width="91" height="96"/>
</g>
</svg>
