<?xml version="1.0" encoding="utf-8"?>
<!-- Generator: Adobe Illustrator 16.0.0, SVG Export Plug-In . SVG Version: 6.00 Build 0)  -->
<!DOCTYPE svg PUBLIC "-//W3C//DTD SVG 1.1//EN" "http://www.w3.org/Graphics/SVG/1.1/DTD/svg11.dtd">
<svg version="1.1" xmlns="http://www.w3.org/2000/svg" xmlns:xlink="http://www.w3.org/1999/xlink" x="0px" y="0px" width="262px"
	 height="178px" viewBox="0 0 262 178" enable-background="new 0 0 262 178" xml:space="preserve">
<g id="Background" display="none">
	
		<rect x="-26" y="-404.92" display="inline" fill-rule="evenodd" clip-rule="evenodd" fill="#FFFFFF" width="799.92" height="799.92"/>
</g>
<g id="Objects">
	<path opacity="0.4" fill-rule="evenodd" clip-rule="evenodd" fill="#333333" d="M616.271-94.128h11.723v4.323v17.957v4.322h-11.723
		c-6.161,0-11.2-5.04-11.2-11.201v-4.2C605.071-89.088,610.11-94.128,616.271-94.128L616.271-94.128z M557.15,395V283.379
		l3.103,43.205c0.148,2.039-0.257,3.994-1.084,5.727l5.406-1.719l8.378,26.353l3.844-1.223L589.445,395H557.15L557.15,395z
		 M557.15,192.545V24.666l0,0h3.579l0.11,0.002l0.11,0.004l0.108,0.007l0.108,0.01l0.107,0.013l0.107,0.015l0.105,0.018l0,0
		l0.105,0.021l0.104,0.022l0.104,0.025l0.103,0.028l0.101,0.03l0.101,0.032l0,0l0.099,0.035l0.099,0.038l0.097,0.039l0,0
		l0.096,0.042l0,0l0.095,0.044v0.001l0.093,0.046l0,0l0.092,0.049l0.091,0.051l0,0l0.089,0.053l0.088,0.056l0.087,0.057l0,0
		l0.085,0.059l0,0l0.083,0.062l0.082,0.062h0.001l0.08,0.065l0.078,0.066l0.077,0.068h0.001l0.075,0.07l0.073,0.072h0.001
		l0.071,0.074l0.07,0.075l0.069,0.077l0.066,0.079l0,0l0.064,0.08l0.063,0.082l0.061,0.084l0,0l0.06,0.085l0,0l0.057,0.087
		l0.055,0.087l0.053,0.09h0.001l0.051,0.091l0.048,0.092h0.001c0.031,0.062,0.062,0.124,0.09,0.188l0.042,0.096l0.04,0.097l0,0
		l0.037,0.099h0.001l0.034,0.099l0.033,0.101l0,0l0.03,0.101l0,0c0.02,0.068,0.037,0.137,0.053,0.205v0.001l0.023,0.104l0,0
		l0.02,0.105l0,0l0.018,0.105h0.001c0.011,0.071,0.02,0.143,0.027,0.215c0.007,0.071,0.013,0.144,0.017,0.217l0,0l0.004,0.11
		l0.002,0.109v0.001v6.324v5.023v134.371l-0.001,0.001h0.001L557.15,192.545L557.15,192.545L557.15,192.545z M557.15-10.39v-51.326
		l22.808,36.044c6.369,10.065,5.135,15.282-4.943,15.282H557.15L557.15-10.39z M636.929,293.259L636.929,293.259v-6.521h54.398
		v36.31l0,0v18.089l0,0h-11.632h-42.767V293.259L636.929,293.259z M616.957,132.174l-0.626-2.889
		c-0.401-1.854,0.787-3.699,2.641-4.101l5.207-1.128c-2.954-22.507,11.806-43.891,34.389-48.783
		c23.799-5.155,47.271,9.959,52.427,33.759c5.155,23.799-9.959,47.271-33.758,52.427c-21.757,4.713-43.236-7.516-50.703-27.831
		l-5.476,1.187C619.204,135.216,617.358,134.027,616.957,132.174L616.957,132.174z M729.557,24.666v21.207H598.7l-0.001-21.207
		h56.89h3.21h2.49h5.679h2.49h5.678h2.491h5.678h2.491h5.678h2.49h5.679h2.49h5.679h2.49h5.679h2.49h4.098H729.557L729.557,24.666z
		 M747.852-145.31L747.852-145.31v6.521h-54.398v-36.31l0,0v-18.09l0,0h11.632h42.767V-145.31L747.852-145.31z M621.396-246.338
		L621.396-246.338l-0.001,56.309v1.952c0,1.257-1.028,2.285-2.285,2.285h-0.262c0,3.681-4.193,6.112-5.377,6.112h-0.275v4.769
		c0,0.661-0.484,1.215-1.116,1.322v6.503c0,0.533-0.437,0.625-0.97,0.203l-3.88-3.069c-0.533-0.422-0.97-1.203-0.97-1.736v-1.9
		c-0.631-0.108-1.116-0.661-1.116-1.322v-4.769h-0.275c-1.183,0-5.376-2.431-5.376-6.112h-0.263c-1.257,0-2.285-1.028-2.285-2.285
		l0.001-59.271c0-1.257,1.028-2.284,2.285-2.284h0.262c0-1.775,1.452-3.227,3.226-3.227h12.905c1.772,0.001,3.225,1.452,3.226,3.227
		h0.262c1.257,0,2.285,1.028,2.285,2.285V-246.338L621.396-246.338z M599.338-135.066v0.188c0,1.011,0.827,1.838,1.838,1.838h15.986
		c1.012,0,1.838-0.826,1.838-1.838v-0.188h0.109c1.257,0,2.285-1.027,2.285-2.284v-22.007c0-1.257-1.028-2.285-2.285-2.285h-19.88
		c-1.257,0-2.285,1.027-2.285,2.284v22.007c0,1.257,1.028,2.285,2.285,2.285H599.338L599.338-135.066z M653.783-149.768
		l-4.255-9.077v-39.977c0,0,1.132-2.264,2.834-3.682v33.166c0,0,0.507,0.39,1.421,0.882l-0.001-112.576
		c0-1.664,0.552-3.2,1.484-4.435v-4.009c-0.001-3.995,1.967-7.328,4.595-8.144v-3.104c0-0.711,0.569-1.283,1.277-1.282
		c0.706,0,1.275,0.571,1.275,1.282v3.12c2.601,0.843,4.54,4.158,4.54,8.127v3.9c0.981,1.252,1.566,2.829,1.566,4.543l0.001,113.096
		c0.188-0.084,0.379-0.171,0.569-0.264v18.709c0,0-0.201,0.115-0.569,0.289v1.131c0,1.716-0.585,3.293-1.566,4.544v2.149
		c0,4.604-2.613,8.337-5.843,8.337c-3.228,0-5.845-3.732-5.846-8.337v-2.259c-0.931-1.233-1.483-2.769-1.483-4.435V-149.768
		L653.783-149.768z M653.167-86.962H639.43v13.944h13.737v1.17v4.322h38.954c6.16,0,11.2-5.04,11.2-11.201v-4.2
		c0-6.161-5.04-11.201-11.2-11.201h-38.954v4.323V-86.962L653.167-86.962z M736.938-216.2l-32.658-0.025
		c-6.193-0.005-11.257-5.076-11.252-11.27l0.068-87.838c0.005-6.193,5.076-11.257,11.271-11.252l32.657,0.025
		c6.193,0.005,11.257,5.076,11.252,11.27l-0.068,87.838C748.203-221.259,743.132-216.195,736.938-216.2L736.938-216.2z
		 M664.02,213.551c-3.84,0.034-19.619-4.406-30.809-5.473c-11.2-1.069-27.854,0.096-30.739,0.979
		c-3.449,1.058-3.552,1.337-3.739,3.946s0.212,4.856,2.232,5.56c2.581,0.898,2.724,4.025,4.122,12.699
		c-1.165,3.921-1.443,7.845-1.475,10.287c-0.062,4.693,4.362,6.729,6.169,2.218c3.241,3.759,8.741,6.403,18.412,7.262
		c17.01,1.51,22.861-9.38,24.75-12.889c3.369-6.256,2.473-14.953,11.073-14.84c8.601,0.112,7.632,8.631,10.836,14.973
		c1.797,3.557,7.205,14.748,24.249,13.684c9.714-0.606,15.285-3.116,18.62-6.804c1.681,4.593,6.174,2.675,6.236-2.028
		c0.031-2.458-0.146-6.422-1.228-10.397c1.613-8.577,1.844-11.685,4.44-12.512c2.038-0.65,2.496-2.887,2.377-5.5
		c-0.12-2.613-0.215-2.895-3.635-4.042c-2.86-0.959-19.479-2.56-30.703-1.785C685.174,209.582,673.055,213.471,664.02,213.551z
		 M557.15-61.716v51.326H267.58v-60.105h244.642v-3.794H267.58v-222.054h4.491c0.363-0.294,0.73-0.581,1.104-0.858l0.037-17.129
		l-5.526-0.012l0.04-18.46l-0.146-0.001v-72.117h30.022h35.834v72.261l-5.958-0.014l-0.041,18.461l-5.526-0.012l-0.033,15.064
		c1.571,0.837,3.004,1.775,4.26,2.816h129.449c1.182-0.933,2.51-1.778,3.954-2.539l0.033-15.044l-5.527-0.012l0.04-18.461
		l-5.958-0.013l-0.1-72.509h35.835h35.834l0.1,72.664l-5.958-0.013l-0.04,18.46l-5.527-0.012l-0.037,17.129
		c0.153,0.114,0.305,0.23,0.456,0.349h35.455c4.095,0,7.448,3.352,7.448,7.449v207.155c0,4.098-3.352,7.449-7.448,7.449h-15.6v3.794
		h23.048L557.15-61.716L557.15-61.716z M557.15,24.666v167.879l-2.602-5.9l-5.272-11.963V35.286v-6.324
		c0-2.363,1.933-4.296,4.295-4.296H557.15L557.15,24.666z M557.15,283.379l-3.529-49.151c-0.469-6.424-5.973-11.381-12.41-10.992
		l0,0c-0.743,0.045-1.467,0.16-2.166,0.337l-0.049-0.662c-0.491-6.722-6.25-11.91-12.987-11.503l0,0
		c-1.97,0.119-3.813,0.704-5.425,1.641l-0.213-0.496c-0.377-1.972-1.178-3.786-2.302-5.346l-17.804-41.365V24.666H279.589V214.7
		l-12.009,19.146v37.376l12.009-19.146l0,28.063l-12.01,6.818v27.01l12.01-8.05v30.848h220.676v-12.479l2.214,6.962l0.904,12.48
		c0.151,2.093,0.774,4.046,1.759,5.758l-3.744,1.19l8.379,26.353l-4.307,1.369L510.828,395h46.322V283.379L557.15,283.379z
		 M267.58,222.453V210.53c2.055,2.631,2.791,6.273,0.829,10.235L267.58,222.453z M267.58-404.92v72.117l-5.813-0.013v-72.104h0
		H267.58L267.58-404.92z M267.58-296.343v222.054h-10.901v3.794h10.901v60.105h-73.055c-9.151,0-11.935-4.271-8.181-10.16
		l31.834-49.945h22.175v-3.794h-15.6c-4.097,0-7.449-3.354-7.449-7.449v-26.929c-21.564,5.361-44.667,8.296-65.351,7.145
		c-2.593-0.144-5.149-0.353-7.66-0.629v-2.523c2.553,0.285,5.155,0.5,7.799,0.647c20.632,1.147,43.711-1.819,65.212-7.218v-177.648
		c0-4.096,3.354-7.449,7.449-7.449H267.58L267.58-296.343z M267.58,210.53v11.923l-14.099,28.685
		c0.586,0.827,1.138,1.676,1.655,2.547l12.444-19.839v37.376l-0.573,0.913c-3.206,5.896-6.942,13.129-11.438,21.643l12.01-6.819
		v27.01l-24.61,16.494c-3.362,2.253-7.694,3.255-12.507,3.287l-8.069,15.504l5.695,2.965l-13.155,26.018l5.863,3.052L213.726,395
		h-69.433v-47.025l2.645-5.13l6.418,3.341l13.155-26.018l5.695,2.964l9.188-17.651c-6.965-14.449-5.266-33.623,6.555-57.112
		l9.02-32.302c3.915-13.587,23.07-7.914,19.005,5.771l-3.999,13.466c0.828-0.382,1.927-0.616,2.939-0.779l10.609-25.591
		c5.339-13.257,22.994-4.215,18.602,6.965l-8.403,21.389c0.573,0.152,1.638,0.681,2.026,0.865l12.872-26.221
		C254.463,204.104,263.555,205.376,267.58,210.53L267.58,210.53z M144.293,260.643l2.205-2.106l9.681-9.245h0l12.36-11.804
		l-19.919-20.856l-2.019,1.927l-2.31-1.378V260.643L144.293,260.643z M144.293,166.849V24.666h108.852v142.183H144.293
		L144.293,166.849z M144.293-177.786c17.987-6.523,26.756-16.888,29.143-27.382c2.239-9.841-1.145-19.762-7.817-26.772
		c-5.377-5.649-12.894-9.416-21.326-9.732v2.508c7.708,0.318,14.583,3.777,19.508,8.952c6.123,6.434,9.233,15.513,7.19,24.494
		c-2.178,9.57-10.218,19.068-26.699,25.259V-177.786z M144.293-241.673v2.508c-1.888-0.079-3.826,0.031-5.797,0.351
		c-13.889,2.25-29.484,14.83-41.302,44.911c-1.397,3.559-2.613,6.989-3.656,10.298c4.079,3.243,8.807,5.639,14.259,6.986
		c7.977,1.971,17.527,1.711,28.894-1.395c2.712-0.741,5.244-1.56,7.603-2.446v2.674c-2.18,0.79-4.494,1.524-6.949,2.195
		c-11.795,3.224-21.767,3.479-30.149,1.406c-5.479-1.354-10.27-3.698-14.439-6.854c-2.659,9.054-3.984,17.162-4.148,24.397v-18.503
		c0.577-2.461,1.257-4.994,2.044-7.601c-0.7-0.607-1.381-1.238-2.044-1.894v-3.629c0.914,1.018,1.868,1.984,2.864,2.897
		c0.985-3.05,2.113-6.197,3.389-9.445c12.204-31.062,28.569-44.097,43.232-46.472C140.201-241.627,142.273-241.749,144.293-241.673
		L144.293-241.673z M144.293-104.675v2.523c-14.1-1.549-26.78-5.226-36.68-11.603c-8.944-5.763-15.61-13.705-19.006-24.239v-15.621
		c0.036,1.557,0.128,3.07,0.275,4.542c1.524,15.256,8.935,26.025,20.085,33.209C118.459-109.749,130.671-106.199,144.293-104.675
		L144.293-104.675z M144.293,24.666v142.183H88.607V24.666H144.293L144.293,24.666z M144.293,217.18v43.463l-3.562,3.402h0
		l-3.09,2.951h0l-12.361,11.805l0,0l-7.453,7.117l-7.997,7.637l0,0l-4.556,4.352l0.811,1.342l-1.351,0.815l0.396,1.416l-1.518,0.426
		l0.004,1.47l-1.58,0.005l-0.389,1.418l-1.521-0.417l-0.49,0.82c0.515,4.88,0.345,9.834-0.69,14.625
		c-1.478,6.84-4.403,14.494-9.883,19.143c-0.15,0.127-0.303,0.249-0.458,0.366v-2.831c1.5-1.449,2.795-3.184,3.531-4.44
		c4.8-8.189,6.447-17.589,5.487-26.854l-0.67,0.641l-0.658-0.688l-7.69,4.646V204.433l10.669-0.029l0.55-2.004l0,0l0.188-0.688
		l23.888,6.551l1.43-2.397L144.293,217.18L144.293,217.18z M144.293,347.975V395h-24.247L144.293,347.975L144.293,347.975z
		 M88.607-13.759v-87.153c17.509,2.713,32.375,15.896,36.35,34.248c5.155,23.799-9.958,47.271-33.758,52.426
		C90.334-14.051,89.471-13.893,88.607-13.759L88.607-13.759z M88.607-282.879v-52.74c3.691,5.079,6.462,11.358,7.811,18.39
		C99.009-303.717,95.693-290.843,88.607-282.879z M88.607-335.619v52.74c-3.418,3.842-7.713,6.542-12.647,7.617l-0.009,0.003
		l-0.009,0.002l-0.009,0.002l-0.009,0.002h-0.002c-0.163,0.036-0.326,0.07-0.49,0.103l-0.01,0.002l-0.009,0.002l-0.009,0.002
		l-0.009,0.002c-0.171,0.032-0.343,0.062-0.515,0.09l-0.009,0.001l-0.01,0.002l-0.009,0.001l-0.009,0.002
		c-1.092,0.18-2.185,0.273-3.274,0.29c-1.754,20.3-1.162,42.06,3.762,60.074c2.612,9.562,6.442,18.048,11.784,24.66
		c0.485,0.601,0.983,1.187,1.494,1.756v3.629c-1.208-1.194-2.355-2.467-3.441-3.812c-5.58-6.907-9.562-15.704-12.26-25.578
		c-4.992-18.265-5.605-40.29-3.842-60.829c-13.223-1.281-25.382-14.12-28.737-31.614c-3.887-20.271,5.518-39.112,21.006-42.083
		C71.45-350.495,81.659-345.184,88.607-335.619L88.607-335.619z M88.607-175.144v18.503c-0.023,1.026-0.023,2.035,0,3.026v15.621
		c-1.077-3.342-1.826-6.944-2.213-10.821C85.627-156.487,86.283-165.23,88.607-175.144L88.607-175.144z M88.607-100.912v87.153
		c-20.85,3.246-40.941-8.801-48.111-28.31l-5.476,1.187c-1.854,0.401-3.699-0.787-4.1-2.641l-0.626-2.889
		c-0.401-1.854,0.787-3.699,2.64-4.101l5.208-1.128c-2.954-22.507,11.805-43.892,34.388-48.783
		C77.979-101.603,83.409-101.718,88.607-100.912L88.607-100.912z M88.607,24.666v142.183H30.216V24.666H88.607L88.607,24.666z
		 M88.607,204.433v105.375l-7.055,4.262c0.166,0.203,0.24,0.481,0.146,0.816c-0.918,3.252-1.459,6.886-1.878,10.233
		c-0.425,3.412-0.968,7.632,0.267,10.944c1.872,5.023,5.588,3.274,8.52,0.44v2.831c-3.465,2.629-7.886,2.629-10.004-1.663
		c-1.689-3.426-1.248-7.915-0.877-11.562c0.391-3.839,1.011-7.988,2.057-11.697c0.195-0.689,0.891-0.84,1.397-0.62L78.285,309
		l-0.923,0.259l-0.933-3.331l-1.495-2.475h-0.157l0-0.261l-2.58-4.27h-0.001l-8.838-14.628h0.001l-2.209-3.657h0l-5.404-8.945
		l-5.643-9.34l-0.001,0.001l-7.079-11.718l-3.968-6.567l-1.857-3.074l-6.613-10.945h0l-0.368-0.608l21.2-12.809l-0.561-2.003h0
		l-0.192-0.685l23.852-6.682l-0.008-2.792L88.607,204.433z"/>
	<g>
		<g>
			<rect x="19.249" y="11.542" fill="#FFAE00" width="222.928" height="142.183"/>
			<g>
				<rect x="28.849" y="12.629" fill="#FFFFFF" width="100.122" height="139.786"/>
				<g>
					<g>
						<circle fill="#726657" cx="124.663" cy="132" r="2.598"/>
						<path fill="#8C8E90" d="M126.779,131.347c0-0.429-0.109-0.829-0.29-1.189c0.472,0.469,0.768,1.121,0.768,1.844
							c0,1.434-1.162,2.597-2.595,2.597c-1.003,0-1.871-0.573-2.305-1.405c0.472,0.462,1.114,0.751,1.826,0.751
							C125.616,133.943,126.779,132.777,126.779,131.347z"/>
					</g>
					<g>
						<circle fill="#726657" cx="124.663" cy="121.582" r="2.597"/>
						<path fill="#8C8E90" d="M126.779,120.93c0-0.43-0.109-0.833-0.29-1.191c0.472,0.47,0.768,1.122,0.768,1.844
							c0,1.434-1.162,2.597-2.595,2.597c-1.003,0-1.871-0.573-2.305-1.406c0.472,0.464,1.114,0.752,1.826,0.752
							C125.616,123.524,126.779,122.363,126.779,120.93z"/>
					</g>
					<g>
						<circle fill="#726657" cx="124.663" cy="111.164" r="2.597"/>
						<path fill="#8C8E90" d="M126.779,110.511c0-0.429-0.109-0.833-0.29-1.191c0.472,0.471,0.768,1.124,0.768,1.845
							c0,1.434-1.162,2.597-2.595,2.597c-1.003,0-1.871-0.573-2.305-1.407c0.472,0.466,1.114,0.751,1.826,0.751
							C125.616,113.104,126.779,111.944,126.779,110.511z"/>
					</g>
					<g>
						<circle fill="#726657" cx="124.663" cy="100.745" r="2.597"/>
						<path fill="#8C8E90" d="M126.779,100.094c0-0.431-0.109-0.832-0.29-1.192c0.472,0.471,0.768,1.124,0.768,1.844
							c0,1.434-1.162,2.597-2.595,2.597c-1.003,0-1.871-0.572-2.305-1.406c0.472,0.463,1.114,0.751,1.826,0.751
							C125.616,102.687,126.779,101.526,126.779,100.094z"/>
					</g>
					<g>
						<circle fill="#726657" cx="124.663" cy="90.327" r="2.596"/>
						<path fill="#8C8E90" d="M126.779,89.675c0-0.43-0.109-0.834-0.29-1.191c0.472,0.471,0.768,1.122,0.768,1.844
							c0,1.432-1.162,2.596-2.595,2.596c-1.003,0-1.871-0.572-2.305-1.406c0.472,0.464,1.114,0.751,1.826,0.751
							C125.616,92.268,126.779,91.106,126.779,89.675z"/>
					</g>
					<g>
						<circle fill="#726657" cx="124.663" cy="79.908" r="2.597"/>
						<path fill="#8C8E90" d="M126.779,79.255c0-0.428-0.109-0.83-0.29-1.188c0.472,0.468,0.768,1.122,0.768,1.844
							c0,1.432-1.162,2.595-2.595,2.595c-1.003,0-1.871-0.572-2.305-1.406c0.472,0.465,1.114,0.753,1.826,0.753
							C125.616,81.852,126.779,80.688,126.779,79.255z"/>
					</g>
					<g>
						<circle fill="#726657" cx="124.663" cy="69.492" r="2.596"/>
						<path fill="#8C8E90" d="M126.779,68.837c0-0.428-0.109-0.833-0.29-1.189c0.472,0.469,0.768,1.123,0.768,1.843
							c0,1.434-1.162,2.598-2.595,2.598c-1.003,0-1.871-0.572-2.305-1.408c0.472,0.465,1.114,0.751,1.826,0.751
							C125.616,71.431,126.779,70.271,126.779,68.837z"/>
					</g>
					<g>
						<path fill="#726657" d="M124.663,56.476c1.433,0,2.595,1.163,2.595,2.599c0,1.431-1.162,2.595-2.595,2.595
							s-2.593-1.164-2.593-2.595C122.07,57.639,123.229,56.476,124.663,56.476z"/>
						<path fill="#8C8E90" d="M126.779,58.419c0-0.43-0.109-0.831-0.29-1.191c0.472,0.47,0.768,1.124,0.768,1.847
							c0,1.431-1.162,2.595-2.595,2.595c-1.003,0-1.871-0.573-2.305-1.406c0.472,0.464,1.114,0.75,1.826,0.75
							C125.616,61.013,126.779,59.852,126.779,58.419z"/>
					</g>
					<g>
						<circle fill="#726657" cx="124.663" cy="48.654" r="2.597"/>
						<path fill="#8C8E90" d="M126.779,48.001c0-0.43-0.109-0.832-0.29-1.191c0.472,0.471,0.768,1.122,0.768,1.844
							c0,1.433-1.162,2.598-2.595,2.598c-1.003,0-1.871-0.573-2.305-1.408c0.472,0.465,1.114,0.753,1.826,0.753
							C125.616,50.596,126.779,49.433,126.779,48.001z"/>
					</g>
					<g>
						<circle fill="#726657" cx="124.663" cy="38.235" r="2.596"/>
						<path fill="#8C8E90" d="M126.779,37.581c0-0.428-0.109-0.83-0.29-1.188c0.472,0.468,0.768,1.124,0.768,1.843
							c0,1.433-1.162,2.595-2.595,2.595c-1.003,0-1.871-0.57-2.305-1.404c0.472,0.464,1.114,0.749,1.826,0.749
							C125.616,40.176,126.779,39.017,126.779,37.581z"/>
					</g>
					<g>
						<circle fill="#726657" cx="124.663" cy="27.817" r="2.597"/>
						<path fill="#8C8E90" d="M126.779,27.165c0-0.432-0.109-0.834-0.29-1.19c0.472,0.47,0.768,1.122,0.768,1.842
							c0,1.435-1.162,2.598-2.595,2.598c-1.003,0-1.871-0.573-2.305-1.407c0.472,0.465,1.114,0.753,1.826,0.753
							C125.616,29.76,126.779,28.596,126.779,27.165z"/>
					</g>
				</g>
				<path fill="#343434" d="M128.458,26.738h2.402c0.607,0,1.086,0.608,1.086,1.386c0,0.78-0.479,1.385-1.086,1.385h-2.402v-0.725
					h2.402c0.169,0,0.36-0.282,0.36-0.66c0-0.377-0.191-0.66-0.36-0.66l0,0h-2.402V26.738z M126.061,26.738h2.397v0.726h-2.397
					c-0.172,0-0.365,0.283-0.365,0.66c0,0.378,0.193,0.66,0.365,0.66h2.397v0.725h-2.397c-0.612,0-1.089-0.604-1.089-1.385
					C124.972,27.347,125.449,26.738,126.061,26.738z"/>
				<path fill="#343434" d="M128.458,37.087h2.402c0.607,0,1.086,0.609,1.086,1.386c0,0.778-0.479,1.387-1.086,1.387h-2.402v-0.725
					h2.402c0.169,0,0.36-0.283,0.36-0.662c0-0.375-0.191-0.66-0.36-0.66l0,0h-2.402V37.087z M126.061,37.087h2.397v0.726h-2.397
					c-0.172,0-0.365,0.285-0.365,0.66c0,0.379,0.193,0.662,0.365,0.662h2.397v0.725h-2.397c-0.612,0-1.089-0.608-1.089-1.387
					C124.972,37.696,125.449,37.087,126.061,37.087z"/>
				<path fill="#343434" d="M128.458,47.438h2.402c0.607,0,1.086,0.607,1.086,1.386c0,0.777-0.479,1.386-1.086,1.386h-2.402v-0.725
					h2.402c0.169,0,0.36-0.284,0.36-0.661c0-0.378-0.191-0.661-0.36-0.661l0,0h-2.402V47.438z M126.061,47.438h2.397v0.725h-2.397
					c-0.172,0-0.365,0.283-0.365,0.661c0,0.377,0.193,0.661,0.365,0.661h2.397v0.725h-2.397c-0.612,0-1.089-0.608-1.089-1.386
					C124.972,48.045,125.449,47.438,126.061,47.438z"/>
				<path fill="#343434" d="M128.458,57.784h2.402c0.607,0,1.086,0.61,1.086,1.389c0,0.776-0.479,1.385-1.086,1.385h-2.402v-0.724
					h2.402c0.169,0,0.36-0.285,0.36-0.661c0-0.379-0.191-0.663-0.36-0.663l0,0h-2.402V57.784z M126.061,57.784h2.397v0.726h-2.397
					c-0.172,0-0.365,0.284-0.365,0.663c0,0.376,0.193,0.661,0.365,0.661h2.397v0.724h-2.397c-0.612,0-1.089-0.608-1.089-1.385
					C124.972,58.395,125.449,57.784,126.061,57.784z"/>
				<path fill="#343434" d="M128.458,68.135h2.402c0.607,0,1.086,0.609,1.086,1.386c0,0.779-0.479,1.386-1.086,1.386h-2.402v-0.725
					h2.402c0.169,0,0.36-0.283,0.36-0.661c0-0.377-0.191-0.66-0.36-0.66l0,0h-2.402V68.135z M126.061,68.135h2.397v0.726h-2.397
					c-0.172,0-0.365,0.283-0.365,0.66c0,0.378,0.193,0.661,0.365,0.661h2.397v0.725h-2.397c-0.612,0-1.089-0.606-1.089-1.386
					C124.972,68.744,125.449,68.135,126.061,68.135z"/>
				<path fill="#343434" d="M128.458,78.483h2.402c0.607,0,1.086,0.61,1.086,1.386c0,0.779-0.479,1.386-1.086,1.386h-2.402V80.53
					h2.402c0.169,0,0.36-0.282,0.36-0.661c0-0.378-0.191-0.661-0.36-0.661l0,0h-2.402V78.483z M126.061,78.483h2.397v0.725h-2.397
					c-0.172,0-0.365,0.283-0.365,0.661c0,0.379,0.193,0.661,0.365,0.661h2.397v0.725h-2.397c-0.612,0-1.089-0.606-1.089-1.386
					C124.972,79.094,125.449,78.483,126.061,78.483z"/>
				<path fill="#343434" d="M128.458,88.832h2.402c0.607,0,1.086,0.61,1.086,1.387c0,0.777-0.479,1.386-1.086,1.386h-2.402V90.88
					h2.402c0.169,0,0.36-0.283,0.36-0.661c0-0.377-0.191-0.66-0.36-0.66l0,0h-2.402V88.832z M126.061,88.832h2.397v0.727h-2.397
					c-0.172,0-0.365,0.283-0.365,0.66c0,0.378,0.193,0.661,0.365,0.661h2.397v0.725h-2.397c-0.612,0-1.089-0.608-1.089-1.386
					C124.972,89.442,125.449,88.832,126.061,88.832z"/>
				<path fill="#343434" d="M128.458,99.182h2.402c0.607,0,1.086,0.609,1.086,1.387c0,0.778-0.479,1.386-1.086,1.386h-2.402v-0.725
					h2.402c0.169,0,0.36-0.283,0.36-0.661c0-0.379-0.191-0.66-0.36-0.66l0,0h-2.402V99.182z M126.061,99.182h2.397v0.727h-2.397
					c-0.172,0-0.365,0.281-0.365,0.66c0,0.378,0.193,0.661,0.365,0.661h2.397v0.725h-2.397c-0.612,0-1.089-0.607-1.089-1.386
					C124.972,99.791,125.449,99.182,126.061,99.182z"/>
				<path fill="#343434" d="M128.458,109.531h2.402c0.607,0,1.086,0.608,1.086,1.387s-0.479,1.385-1.086,1.385h-2.402v-0.725h2.402
					c0.169,0,0.36-0.282,0.36-0.66c0-0.379-0.191-0.66-0.36-0.66l0,0h-2.402V109.531z M126.061,109.531h2.397v0.727h-2.397
					c-0.172,0-0.365,0.281-0.365,0.66c0,0.378,0.193,0.66,0.365,0.66h2.397v0.725h-2.397c-0.612,0-1.089-0.606-1.089-1.385
					S125.449,109.531,126.061,109.531z"/>
				<path fill="#343434" d="M128.458,119.88h2.402c0.607,0,1.086,0.61,1.086,1.388c0,0.778-0.479,1.385-1.086,1.385h-2.402v-0.724
					h2.402c0.169,0,0.36-0.282,0.36-0.661c0-0.378-0.191-0.661-0.36-0.661l0,0h-2.402V119.88z M126.061,119.88h2.397v0.727h-2.397
					c-0.172,0-0.365,0.283-0.365,0.661c0,0.379,0.193,0.661,0.365,0.661h2.397v0.724h-2.397c-0.612,0-1.089-0.606-1.089-1.385
					C124.972,120.49,125.449,119.88,126.061,119.88z"/>
				<path fill="#343434" d="M128.458,130.229h2.402c0.607,0,1.086,0.608,1.086,1.387c0,0.779-0.479,1.385-1.086,1.385h-2.402v-0.724
					h2.402c0.169,0,0.36-0.283,0.36-0.661s-0.191-0.66-0.36-0.66l0,0h-2.402V130.229z M126.061,130.229h2.397v0.727h-2.397
					c-0.172,0-0.365,0.282-0.365,0.66s0.193,0.661,0.365,0.661h2.397v0.724h-2.397c-0.612,0-1.089-0.605-1.089-1.385
					C124.972,130.838,125.449,130.229,126.061,130.229z"/>
				<rect x="38.755" y="34.582" fill="#5D5E60" width="81.805" height="0.216"/>
				<rect x="38.755" y="39.541" fill="#5D5E60" width="81.805" height="0.214"/>
				<rect x="38.755" y="44.498" fill="#5D5E60" width="81.805" height="0.213"/>
				<rect x="38.755" y="49.457" fill="#5D5E60" width="81.805" height="0.21"/>
				<rect x="38.755" y="54.413" fill="#5D5E60" width="81.805" height="0.216"/>
				<rect x="38.755" y="59.37" fill="#5D5E60" width="81.805" height="0.216"/>
				<rect x="38.755" y="64.329" fill="#5D5E60" width="81.805" height="0.214"/>
				<rect x="38.755" y="69.285" fill="#5D5E60" width="81.805" height="0.216"/>
				<rect x="38.755" y="74.245" fill="#5D5E60" width="81.805" height="0.21"/>
				<rect x="38.755" y="79.203" fill="#5D5E60" width="81.805" height="0.214"/>
				<rect x="38.755" y="84.159" fill="#5D5E60" width="81.805" height="0.213"/>
				<rect x="38.755" y="89.121" fill="#5D5E60" width="81.805" height="0.21"/>
				<rect x="38.755" y="94.076" fill="#5D5E60" width="81.805" height="0.213"/>
				<rect x="38.755" y="99.031" fill="#5D5E60" width="81.805" height="0.216"/>
				<rect x="38.755" y="103.99" fill="#5D5E60" width="81.805" height="0.215"/>
				<rect x="38.755" y="108.949" fill="#5D5E60" width="81.805" height="0.21"/>
				<rect x="38.755" y="113.907" fill="#5D5E60" width="81.805" height="0.212"/>
				<rect x="38.755" y="118.862" fill="#5D5E60" width="81.805" height="0.215"/>
				<rect x="38.755" y="123.821" fill="#5D5E60" width="81.805" height="0.214"/>
				<rect x="38.755" y="128.78" fill="#5D5E60" width="81.805" height="0.214"/>
				<rect x="54.454" y="133.736" fill="#5D5E60" width="66.107" height="0.213"/>
			</g>
			<path fill="#2C577D" d="M229.343,44.807h2.449c3.816,0,6.908-2.648,6.908-5.915V18.546c0-3.269-3.092-5.917-6.908-5.917h-2.449
				V44.807z"/>
			<path fill="#DA4622" d="M229.343,67.742h2.449c3.816,0,6.908-2.647,6.908-5.916V41.484c0-3.27-3.092-5.919-6.908-5.919h-2.449
				V67.742z"/>
			<path fill="#FFCF66" d="M229.343,90.53h2.449c3.816,0,6.908-2.649,6.908-5.916V64.27c0-3.267-3.092-5.916-6.908-5.916h-2.449
				V90.53z"/>
			<g>
				<rect x="130.585" y="12.629" fill="#B3B3B3" width="100.123" height="139.786"/>
				<polygon fill="#FFFFFF" points="230.708,12.629 130.585,12.629 130.585,152.415 204.589,152.415 230.708,135.483 				"/>
				<path fill="#E6E6E6" d="M204.589,152.415c0,0,7.088-7.325,5.743-17.5c0,0,11.579,3.531,20.376,0.568L204.589,152.415z"/>
				<g>
					<g>
						<path fill="#726657" d="M134.895,129.402c-1.435,0-2.597,1.166-2.597,2.599c0,1.434,1.163,2.597,2.597,2.597
							c1.43,0,2.592-1.163,2.592-2.597C137.487,130.568,136.325,129.402,134.895,129.402z"/>
						<path fill="#8C8E90" d="M132.775,131.347c0-0.429,0.109-0.829,0.29-1.189c-0.469,0.469-0.768,1.121-0.768,1.844
							c0,1.434,1.163,2.597,2.597,2.597c1.002,0,1.871-0.573,2.302-1.405c-0.469,0.462-1.113,0.751-1.825,0.751
							C133.94,133.943,132.775,132.777,132.775,131.347z"/>
					</g>
					<g>
						<path fill="#726657" d="M134.895,118.985c-1.435,0-2.597,1.163-2.597,2.597s1.163,2.597,2.597,2.597
							c1.43,0,2.592-1.163,2.592-2.597S136.325,118.985,134.895,118.985z"/>
						<path fill="#8C8E90" d="M132.775,120.93c0-0.43,0.109-0.833,0.29-1.191c-0.469,0.47-0.768,1.122-0.768,1.844
							c0,1.434,1.163,2.597,2.597,2.597c1.002,0,1.871-0.573,2.302-1.406c-0.469,0.464-1.113,0.752-1.825,0.752
							C133.94,123.524,132.775,122.363,132.775,120.93z"/>
					</g>
					<g>
						<path fill="#726657" d="M134.895,108.566c-1.435,0-2.597,1.166-2.597,2.598c0,1.434,1.163,2.597,2.597,2.597
							c1.43,0,2.592-1.163,2.592-2.597C137.487,109.732,136.325,108.566,134.895,108.566z"/>
						<path fill="#8C8E90" d="M132.775,110.511c0-0.429,0.109-0.833,0.29-1.191c-0.469,0.471-0.768,1.124-0.768,1.845
							c0,1.434,1.163,2.597,2.597,2.597c1.002,0,1.871-0.573,2.302-1.407c-0.469,0.466-1.113,0.751-1.825,0.751
							C133.94,113.104,132.775,111.944,132.775,110.511z"/>
					</g>
					<g>
						<path fill="#726657" d="M134.895,98.148c-1.435,0-2.597,1.164-2.597,2.597c0,1.434,1.163,2.597,2.597,2.597
							c1.43,0,2.592-1.163,2.592-2.597C137.487,99.312,136.325,98.148,134.895,98.148z"/>
						<path fill="#8C8E90" d="M132.775,100.094c0-0.431,0.109-0.832,0.29-1.192c-0.469,0.471-0.768,1.124-0.768,1.844
							c0,1.434,1.163,2.597,2.597,2.597c1.002,0,1.871-0.572,2.302-1.406c-0.469,0.463-1.113,0.751-1.825,0.751
							C133.94,102.687,132.775,101.526,132.775,100.094z"/>
					</g>
					<g>
						<path fill="#726657" d="M134.895,87.73c-1.435,0-2.597,1.163-2.597,2.597c0,1.432,1.163,2.596,2.597,2.596
							c1.43,0,2.592-1.164,2.592-2.596C137.487,88.894,136.325,87.73,134.895,87.73z"/>
						<path fill="#8C8E90" d="M132.775,89.675c0-0.43,0.109-0.834,0.29-1.191c-0.469,0.471-0.768,1.122-0.768,1.844
							c0,1.432,1.163,2.596,2.597,2.596c1.002,0,1.871-0.572,2.302-1.406c-0.469,0.464-1.113,0.751-1.825,0.751
							C133.94,92.268,132.775,91.106,132.775,89.675z"/>
					</g>
					<g>
						<path fill="#726657" d="M134.895,77.312c-1.435,0-2.597,1.165-2.597,2.599c0,1.432,1.163,2.595,2.597,2.595
							c1.43,0,2.592-1.163,2.592-2.595C137.487,78.477,136.325,77.312,134.895,77.312z"/>
						<path fill="#8C8E90" d="M132.775,79.255c0-0.428,0.109-0.83,0.29-1.188c-0.469,0.468-0.768,1.122-0.768,1.844
							c0,1.432,1.163,2.595,2.597,2.595c1.002,0,1.871-0.572,2.302-1.406c-0.469,0.465-1.113,0.753-1.825,0.753
							C133.94,81.852,132.775,80.688,132.775,79.255z"/>
					</g>
					<g>
						<path fill="#726657" d="M134.895,66.896c-1.435,0-2.597,1.161-2.597,2.595s1.163,2.598,2.597,2.598
							c1.43,0,2.592-1.164,2.592-2.598S136.325,66.896,134.895,66.896z"/>
						<path fill="#8C8E90" d="M132.775,68.837c0-0.428,0.109-0.833,0.29-1.189c-0.469,0.469-0.768,1.123-0.768,1.843
							c0,1.434,1.163,2.598,2.597,2.598c1.002,0,1.871-0.572,2.302-1.408c-0.469,0.465-1.113,0.751-1.825,0.751
							C133.94,71.431,132.775,70.271,132.775,68.837z"/>
					</g>
					<g>
						<path fill="#726657" d="M134.895,56.476c-1.435,0-2.597,1.163-2.597,2.599c0,1.431,1.163,2.595,2.597,2.595
							c1.43,0,2.592-1.164,2.592-2.595C137.487,57.639,136.325,56.476,134.895,56.476z"/>
						<path fill="#8C8E90" d="M132.775,58.419c0-0.43,0.109-0.831,0.29-1.191c-0.469,0.47-0.768,1.124-0.768,1.847
							c0,1.431,1.163,2.595,2.597,2.595c1.002,0,1.871-0.573,2.302-1.406c-0.469,0.464-1.113,0.75-1.825,0.75
							C133.94,61.013,132.775,59.852,132.775,58.419z"/>
					</g>
					<g>
						<path fill="#726657" d="M134.895,46.057c-1.435,0-2.597,1.163-2.597,2.597c0,1.433,1.163,2.598,2.597,2.598
							c1.43,0,2.592-1.165,2.592-2.598C137.487,47.22,136.325,46.057,134.895,46.057z"/>
						<path fill="#8C8E90" d="M132.775,48.001c0-0.43,0.109-0.832,0.29-1.191c-0.469,0.471-0.768,1.122-0.768,1.844
							c0,1.433,1.163,2.598,2.597,2.598c1.002,0,1.871-0.573,2.302-1.408c-0.469,0.465-1.113,0.753-1.825,0.753
							C133.94,50.596,132.775,49.433,132.775,48.001z"/>
					</g>
					<g>
						<path fill="#726657" d="M134.895,35.64c-1.435,0-2.597,1.164-2.597,2.597s1.163,2.595,2.597,2.595
							c1.43,0,2.592-1.162,2.592-2.595S136.325,35.64,134.895,35.64z"/>
						<path fill="#8C8E90" d="M132.775,37.581c0-0.428,0.109-0.83,0.29-1.188c-0.469,0.468-0.768,1.124-0.768,1.843
							c0,1.433,1.163,2.595,2.597,2.595c1.002,0,1.871-0.57,2.302-1.404c-0.469,0.464-1.113,0.749-1.825,0.749
							C133.94,40.176,132.775,39.017,132.775,37.581z"/>
					</g>
					<g>
						<path fill="#726657" d="M134.895,25.221c-1.435,0-2.597,1.164-2.597,2.596c0,1.435,1.163,2.598,2.597,2.598
							c1.43,0,2.592-1.163,2.592-2.598C137.487,26.385,136.325,25.221,134.895,25.221z"/>
						<path fill="#8C8E90" d="M132.775,27.165c0-0.432,0.109-0.834,0.29-1.19c-0.469,0.47-0.768,1.122-0.768,1.842
							c0,1.435,1.163,2.598,2.597,2.598c1.002,0,1.871-0.573,2.302-1.407c-0.469,0.465-1.113,0.753-1.825,0.753
							C133.94,29.76,132.775,28.596,132.775,27.165z"/>
					</g>
				</g>
				<path fill="#343434" d="M134.584,28.124c0,0.78-0.479,1.385-1.091,1.385h-2.396v-0.725h2.396c0.174,0,0.366-0.282,0.366-0.66
					c0-0.377-0.192-0.66-0.366-0.66h-2.396v-0.726h2.396C134.106,26.738,134.584,27.347,134.584,28.124z M131.098,29.509h-2.401
					c-0.609,0-1.088-0.604-1.088-1.385c0-0.777,0.479-1.386,1.088-1.386h2.401v0.726h-2.401c-0.169,0-0.361,0.283-0.361,0.66l0,0
					c0,0.378,0.192,0.66,0.361,0.66h2.401V29.509z"/>
				<path fill="#343434" d="M134.584,38.473c0,0.778-0.479,1.387-1.091,1.387h-2.396v-0.725h2.396c0.174,0,0.366-0.283,0.366-0.662
					c0-0.375-0.192-0.66-0.366-0.66h-2.396v-0.726h2.396C134.106,37.087,134.584,37.696,134.584,38.473z M131.098,39.859h-2.401
					c-0.609,0-1.088-0.608-1.088-1.387c0-0.776,0.479-1.386,1.088-1.386h2.401v0.726h-2.401c-0.169,0-0.361,0.285-0.361,0.66l0,0
					c0,0.379,0.192,0.662,0.361,0.662h2.401V39.859z"/>
				<path fill="#343434" d="M134.584,48.823c0,0.777-0.479,1.386-1.091,1.386h-2.396v-0.725h2.396c0.174,0,0.366-0.284,0.366-0.661
					c0-0.378-0.192-0.661-0.366-0.661h-2.396v-0.725h2.396C134.106,47.438,134.584,48.045,134.584,48.823z M131.098,50.209h-2.401
					c-0.609,0-1.088-0.608-1.088-1.386c0-0.778,0.479-1.386,1.088-1.386h2.401v0.725h-2.401c-0.169,0-0.361,0.283-0.361,0.661l0,0
					c0,0.377,0.192,0.661,0.361,0.661h2.401V50.209z"/>
				<path fill="#343434" d="M134.584,59.173c0,0.776-0.479,1.385-1.091,1.385h-2.396v-0.724h2.396c0.174,0,0.366-0.285,0.366-0.661
					c0-0.379-0.192-0.663-0.366-0.663h-2.396v-0.726h2.396C134.106,57.784,134.584,58.395,134.584,59.173z M131.098,60.558h-2.401
					c-0.609,0-1.088-0.608-1.088-1.385c0-0.778,0.479-1.389,1.088-1.389h2.401v0.726h-2.401c-0.169,0-0.361,0.284-0.361,0.663l0,0
					c0,0.376,0.192,0.661,0.361,0.661h2.401V60.558z"/>
				<path fill="#343434" d="M134.584,69.521c0,0.779-0.479,1.386-1.091,1.386h-2.396v-0.725h2.396c0.174,0,0.366-0.283,0.366-0.661
					c0-0.377-0.192-0.66-0.366-0.66h-2.396v-0.726h2.396C134.106,68.135,134.584,68.744,134.584,69.521z M131.098,70.906h-2.401
					c-0.609,0-1.088-0.606-1.088-1.386c0-0.776,0.479-1.386,1.088-1.386h2.401v0.726h-2.401c-0.169,0-0.361,0.283-0.361,0.66l0,0
					c0,0.378,0.192,0.661,0.361,0.661h2.401V70.906z"/>
				<path fill="#343434" d="M134.584,79.869c0,0.779-0.479,1.386-1.091,1.386h-2.396V80.53h2.396c0.174,0,0.366-0.282,0.366-0.661
					c0-0.378-0.192-0.661-0.366-0.661h-2.396v-0.725h2.396C134.106,78.483,134.584,79.094,134.584,79.869z M131.098,81.255h-2.401
					c-0.609,0-1.088-0.606-1.088-1.386c0-0.775,0.479-1.386,1.088-1.386h2.401v0.725h-2.401c-0.169,0-0.361,0.283-0.361,0.661l0,0
					c0,0.379,0.192,0.661,0.361,0.661h2.401V81.255z"/>
				<path fill="#343434" d="M134.584,90.219c0,0.777-0.479,1.386-1.091,1.386h-2.396V90.88h2.396c0.174,0,0.366-0.283,0.366-0.661
					c0-0.377-0.192-0.66-0.366-0.66h-2.396v-0.727h2.396C134.106,88.832,134.584,89.442,134.584,90.219z M131.098,91.604h-2.401
					c-0.609,0-1.088-0.608-1.088-1.386c0-0.776,0.479-1.387,1.088-1.387h2.401v0.727h-2.401c-0.169,0-0.361,0.283-0.361,0.66l0,0
					c0,0.378,0.192,0.661,0.361,0.661h2.401V91.604z"/>
				<path fill="#343434" d="M134.584,100.568c0,0.778-0.479,1.386-1.091,1.386h-2.396v-0.725h2.396c0.174,0,0.366-0.283,0.366-0.661
					c0-0.379-0.192-0.66-0.366-0.66h-2.396v-0.727h2.396C134.106,99.182,134.584,99.791,134.584,100.568z M131.098,101.954h-2.401
					c-0.609,0-1.088-0.607-1.088-1.386c0-0.777,0.479-1.387,1.088-1.387h2.401v0.727h-2.401c-0.169,0-0.361,0.281-0.361,0.66l0,0
					c0,0.378,0.192,0.661,0.361,0.661h2.401V101.954z"/>
				<path fill="#343434" d="M134.584,110.918c0,0.778-0.479,1.385-1.091,1.385h-2.396v-0.725h2.396c0.174,0,0.366-0.282,0.366-0.66
					c0-0.379-0.192-0.66-0.366-0.66h-2.396v-0.727h2.396C134.106,109.531,134.584,110.14,134.584,110.918z M131.098,112.303h-2.401
					c-0.609,0-1.088-0.606-1.088-1.385s0.479-1.387,1.088-1.387h2.401v0.727h-2.401c-0.169,0-0.361,0.281-0.361,0.66l0,0
					c0,0.378,0.192,0.66,0.361,0.66h2.401V112.303z"/>
				<path fill="#343434" d="M134.584,121.268c0,0.778-0.479,1.385-1.091,1.385h-2.396v-0.724h2.396c0.174,0,0.366-0.282,0.366-0.661
					c0-0.378-0.192-0.661-0.366-0.661h-2.396v-0.727h2.396C134.106,119.88,134.584,120.49,134.584,121.268z M131.098,122.652h-2.401
					c-0.609,0-1.088-0.606-1.088-1.385c0-0.777,0.479-1.388,1.088-1.388h2.401v0.727h-2.401c-0.169,0-0.361,0.283-0.361,0.661l0,0
					c0,0.379,0.192,0.661,0.361,0.661h2.401V122.652z"/>
				<path fill="#343434" d="M134.584,131.616c0,0.779-0.479,1.385-1.091,1.385h-2.396v-0.724h2.396c0.174,0,0.366-0.283,0.366-0.661
					s-0.192-0.66-0.366-0.66h-2.396v-0.727h2.396C134.106,130.229,134.584,130.838,134.584,131.616z M131.098,133.001h-2.401
					c-0.609,0-1.088-0.605-1.088-1.385c0-0.778,0.479-1.387,1.088-1.387h2.401v0.727h-2.401c-0.169,0-0.361,0.282-0.361,0.66l0,0
					c0,0.378,0.192,0.661,0.361,0.661h2.401V133.001z"/>
				<rect x="138.996" y="34.582" fill="#5D5E60" width="81.805" height="0.216"/>
				<rect x="138.996" y="39.541" fill="#5D5E60" width="81.805" height="0.214"/>
				<rect x="138.996" y="44.498" fill="#5D5E60" width="81.805" height="0.213"/>
				<rect x="138.996" y="49.457" fill="#5D5E60" width="81.805" height="0.21"/>
				<rect x="138.996" y="54.413" fill="#5D5E60" width="81.805" height="0.216"/>
				<rect x="138.996" y="59.37" fill="#5D5E60" width="81.805" height="0.216"/>
				<rect x="138.996" y="64.329" fill="#5D5E60" width="81.805" height="0.214"/>
				<rect x="138.996" y="69.285" fill="#5D5E60" width="81.805" height="0.216"/>
				<rect x="138.996" y="74.245" fill="#5D5E60" width="81.805" height="0.21"/>
				<rect x="138.996" y="79.203" fill="#5D5E60" width="81.805" height="0.214"/>
				<rect x="138.996" y="84.159" fill="#5D5E60" width="81.805" height="0.213"/>
				<rect x="138.996" y="89.121" fill="#5D5E60" width="81.805" height="0.21"/>
				<rect x="138.996" y="94.076" fill="#5D5E60" width="81.805" height="0.213"/>
				<rect x="138.996" y="99.031" fill="#5D5E60" width="81.805" height="0.216"/>
				<rect x="138.996" y="103.99" fill="#5D5E60" width="81.805" height="0.215"/>
				<rect x="138.996" y="108.949" fill="#5D5E60" width="81.805" height="0.21"/>
				<rect x="138.996" y="113.907" fill="#5D5E60" width="81.805" height="0.212"/>
				<rect x="138.996" y="118.862" fill="#5D5E60" width="81.805" height="0.215"/>
				<rect x="138.996" y="123.821" fill="#5D5E60" width="81.805" height="0.214"/>
				<rect x="138.996" y="128.78" fill="#5D5E60" width="81.805" height="0.214"/>
				<rect x="138.996" y="133.736" fill="#5D5E60" width="66.105" height="0.213"/>
			</g>
		</g>
	</g>
	<rect id="_x3C_Slice_x3E__1_" x="-3" fill-rule="evenodd" clip-rule="evenodd" fill="none" width="265" height="177"/>
</g>
</svg>
