<?xml version="1.0" encoding="UTF-8" standalone="no"?>
<!-- Generator: Adobe Illustrator 16.0.0, SVG Export Plug-In . SVG Version: 6.00 Build 0)  -->
<!DOCTYPE svg  PUBLIC '-//W3C//DTD SVG 1.1//EN'  'http://www.w3.org/Graphics/SVG/1.1/DTD/svg11.dtd'>
<svg xmlns="http://www.w3.org/2000/svg" xml:space="preserve" height="178px" width="262px" version="1.1" y="0px" x="0px" xmlns:xlink="http://www.w3.org/1999/xlink" viewBox="0 0 262 178" enable-background="new 0 0 262 178">
<g id="Background" display="none">
		<rect fill-rule="evenodd" height="799.92" width="799.92" clip-rule="evenodd" y="-404.92" x="-26" display="inline" fill="#fff"/>
</g>
<g id="Objects">
	<path opacity=".4" fill="#333" clip-rule="evenodd" d="m616.27-94.128h11.723v26.602h-11.723c-6.161 0-11.2-5.04-11.2-11.201v-4.2c0-6.161 5.04-11.201 11.2-11.201zm-59.12 489.13v-111.62l3.103 43.205c0.148 2.039-0.257 3.994-1.084 5.727l5.406-1.719 8.378 26.353 3.844-1.223 12.64 39.28h-32.29zm0-202.46v-167.87h3.579l0.11 0.002 0.11 0.004 0.108 0.007 0.108 0.01 0.107 0.013 0.107 0.015 0.105 0.018 0.105 0.021 0.104 0.022 0.104 0.025 0.103 0.028 0.101 0.03 0.101 0.032 0.099 0.035 0.099 0.038 0.097 0.039 0.096 0.042 0.095 0.044v0.001l0.093 0.046 0.092 0.049 0.091 0.051 0.089 0.053 0.088 0.056 0.087 0.057 0.085 0.059 0.083 0.062 0.082 0.062h0.001l0.08 0.065 0.078 0.066 0.077 0.068h0.001l0.075 0.07 0.073 0.072h0.001l0.071 0.074 0.07 0.075 0.069 0.077 0.066 0.079 0.064 0.08 0.063 0.082 0.061 0.084 0.06 0.085 0.057 0.087 0.055 0.087 0.053 0.09h0.001l0.051 0.091 0.048 0.092h0.001c0.031 0.062 0.062 0.124 0.09 0.188l0.042 0.096 0.04 0.097 0.037 0.099h0.001l0.034 0.099 0.033 0.101 0.03 0.101c0.02 0.068 0.037 0.137 0.053 0.205v0.001l0.023 0.104 0.02 0.105 0.018 0.105h0.001c0.011 0.071 0.02 0.143 0.027 0.215 0.007 0.071 0.013 0.144 0.017 0.217l0.004 0.11 0.002 0.109v145.72l-0.001 0.001h0.001l-7.86 17.86zm0-202.93v-51.326l22.808 36.044c6.369 10.065 5.135 15.282-4.943 15.282h-17.87zm79.78 303.65v-6.521h54.398v54.399h-54.399v-47.88zm-19.97-161.09l-0.626-2.889c-0.401-1.854 0.787-3.699 2.641-4.101l5.207-1.128c-2.954-22.507 11.806-43.891 34.389-48.783 23.799-5.155 47.271 9.959 52.427 33.759 5.155 23.799-9.959 47.271-33.758 52.427-21.757 4.713-43.236-7.516-50.703-27.831l-5.476 1.187c-1.86 0.4-3.7-0.79-4.1-2.65zm112.6-107.5v21.207h-130.86l-0.001-21.207h130.85zm18.29-169.98v6.521h-54.398v-54.4h54.399v47.88zm-126.45-101.03l-0.001 56.309v1.952c0 1.257-1.028 2.285-2.285 2.285h-0.262c0 3.681-4.193 6.112-5.377 6.112h-0.275v4.769c0 0.661-0.484 1.215-1.116 1.322v6.503c0 0.533-0.437 0.625-0.97 0.203l-3.88-3.069c-0.533-0.422-0.97-1.203-0.97-1.736v-1.9c-0.631-0.108-1.116-0.661-1.116-1.322v-4.769h-0.275c-1.183 0-5.376-2.431-5.376-6.112h-0.263c-1.257 0-2.285-1.028-2.285-2.285l0.001-59.271c0-1.257 1.028-2.284 2.285-2.284h0.262c0-1.775 1.452-3.227 3.226-3.227h12.905c1.772 0.001 3.225 1.452 3.226 3.227h0.262c1.257 0 2.285 1.028 2.285 2.285v1.02zm-22.06 111.27v0.188c0 1.011 0.827 1.838 1.838 1.838h15.986c1.012 0 1.838-0.826 1.838-1.838v-0.188h0.109c1.257 0 2.285-1.027 2.285-2.284v-22.007c0-1.257-1.028-2.285-2.285-2.285h-19.88c-1.257 0-2.285 1.027-2.285 2.284v22.007c0 1.257 1.028 2.285 2.285 2.285h0.1v-0.01zm54.44-14.7l-4.255-9.077v-39.977s1.132-2.264 2.834-3.682v33.166s0.507 0.39 1.421 0.882l-0.001-112.58c0-1.664 0.552-3.2 1.484-4.435v-4.009c-0.001-3.995 1.967-7.328 4.595-8.144v-3.104c0-0.711 0.569-1.283 1.277-1.282 0.706 0 1.275 0.571 1.275 1.282v3.12c2.601 0.843 4.54 4.158 4.54 8.127v3.9c0.981 1.252 1.566 2.829 1.566 4.543l0.001 113.1c0.188-0.084 0.379-0.171 0.569-0.264v18.709s-0.201 0.115-0.569 0.289v1.131c0 1.716-0.585 3.293-1.566 4.544v2.149c0 4.604-2.613 8.337-5.843 8.337-3.228 0-5.845-3.732-5.846-8.337v-2.259c-0.931-1.233-1.483-2.769-1.483-4.435v-1.69h0.01zm-0.61 62.808h-13.74v13.944h13.737v5.492h38.954c6.16 0 11.2-5.04 11.2-11.201v-4.2c0-6.161-5.04-11.201-11.2-11.201h-38.954v7.166zm83.77-129.24l-32.658-0.025c-6.193-0.005-11.257-5.076-11.252-11.27l0.068-87.838c0.005-6.193 5.076-11.257 11.271-11.252l32.657 0.025c6.193 0.005 11.257 5.076 11.252 11.27l-0.068 87.838c-0.01 6.19-5.08 11.25-11.27 11.25zm-72.92 429.75c-3.84 0.034-19.619-4.406-30.809-5.473-11.2-1.069-27.854 0.096-30.739 0.979-3.449 1.058-3.552 1.337-3.739 3.946s0.212 4.856 2.232 5.56c2.581 0.898 2.724 4.025 4.122 12.699-1.165 3.921-1.443 7.845-1.475 10.287-0.062 4.693 4.362 6.729 6.169 2.218 3.241 3.759 8.741 6.403 18.412 7.262 17.01 1.51 22.861-9.38 24.75-12.889 3.369-6.256 2.473-14.953 11.073-14.84 8.601 0.112 7.632 8.631 10.836 14.973 1.797 3.557 7.205 14.748 24.249 13.684 9.714-0.606 15.285-3.116 18.62-6.804 1.681 4.593 6.174 2.675 6.236-2.028 0.031-2.458-0.146-6.422-1.228-10.397 1.613-8.577 1.844-11.685 4.44-12.512 2.038-0.65 2.496-2.887 2.377-5.5-0.12-2.613-0.215-2.895-3.635-4.042-2.86-0.959-19.479-2.56-30.703-1.785-10.03 0.68-22.14 4.57-31.18 4.65zm-106.87-275.27v51.326h-289.57v-60.105h244.64v-3.794h-244.64v-222.05h4.491c0.363-0.294 0.73-0.581 1.104-0.858l0.037-17.129-5.526-0.012 0.04-18.46-0.146-0.001v-72.117h65.856v72.261l-5.958-0.014-0.041 18.461-5.526-0.012-0.033 15.064c1.571 0.837 3.004 1.775 4.26 2.816h129.45c1.182-0.933 2.51-1.778 3.954-2.539l0.033-15.044-5.527-0.012 0.04-18.461-5.958-0.013-0.1-72.509h71.669l0.1 72.664-5.958-0.013-0.04 18.46-5.527-0.012-0.037 17.129c0.153 0.114 0.305 0.23 0.456 0.349h35.455c4.095 0 7.448 3.352 7.448 7.449v207.16c0 4.098-3.352 7.449-7.448 7.449h-15.6v3.794h23.048l5.58 8.761zm0 86.382v167.88l-2.602-5.9-5.272-11.963v-145.72c0-2.363 1.933-4.296 4.295-4.296h3.57v-0.004zm0 258.71l-3.529-49.151c-0.469-6.424-5.973-11.381-12.41-10.992-0.743 0.045-1.467 0.16-2.166 0.337l-0.049-0.662c-0.491-6.722-6.25-11.91-12.987-11.503-1.97 0.119-3.813 0.704-5.425 1.641l-0.213-0.496c-0.377-1.972-1.178-3.786-2.302-5.346l-17.804-41.365v-141.17h-220.68v190.03l-12.009 19.146v37.376l12.009-19.146v28.063l-12.01 6.818v27.01l12.01-8.05v30.848h220.68v-12.479l2.214 6.962 0.904 12.48c0.151 2.093 0.774 4.046 1.759 5.758l-3.744 1.19 8.379 26.353-4.307 1.369 5.36 16.6h46.322v-111.62zm-289.57-60.93v-11.92c2.055 2.631 2.791 6.273 0.829 10.235l-0.83 1.69zm0-627.37v72.117l-5.813-0.013v-72.104h5.81v-0.01zm0 108.58v222.05h-10.901v3.794h10.901v60.105h-73.055c-9.151 0-11.935-4.271-8.181-10.16l31.834-49.945h22.175v-3.794h-15.6c-4.097 0-7.449-3.354-7.449-7.449v-26.929c-21.564 5.361-44.667 8.296-65.351 7.145-2.593-0.144-5.149-0.353-7.66-0.629v-2.523c2.553 0.285 5.155 0.5 7.799 0.647 20.632 1.147 43.711-1.819 65.212-7.218v-177.65c0-4.096 3.354-7.449 7.449-7.449h42.84zm0 506.87v11.923l-14.099 28.685c0.586 0.827 1.138 1.676 1.655 2.547l12.444-19.839v37.376l-0.573 0.913c-3.206 5.896-6.942 13.129-11.438 21.643l12.01-6.819v27.01l-24.61 16.494c-3.362 2.253-7.694 3.255-12.507 3.287l-8.069 15.504 5.695 2.965-13.155 26.018 5.863 3.052-7.05 13.71h-69.433v-47.025l2.645-5.13 6.418 3.341 13.155-26.018 5.695 2.964 9.188-17.651c-6.965-14.449-5.266-33.623 6.555-57.112l9.02-32.302c3.915-13.587 23.07-7.914 19.005 5.771l-3.999 13.466c0.828-0.382 1.927-0.616 2.939-0.779l10.609-25.591c5.339-13.257 22.994-4.215 18.602 6.965l-8.403 21.389c0.573 0.152 1.638 0.681 2.026 0.865l12.872-26.221c3.83-7.84 12.93-6.56 16.95-1.41zm-123.29 50.11l2.205-2.106 9.681-9.245 12.36-11.804-19.919-20.856-2.019 1.927-2.31-1.378v43.47zm0-93.79v-142.18h108.85v142.18h-108.85zm0-344.64c17.987-6.523 26.756-16.888 29.143-27.382 2.239-9.841-1.145-19.762-7.817-26.772-5.377-5.649-12.894-9.416-21.326-9.732v2.508c7.708 0.318 14.583 3.777 19.508 8.952 6.123 6.434 9.233 15.513 7.19 24.494-2.178 9.57-10.218 19.068-26.699 25.259v2.67zm0-63.88v2.508c-1.888-0.079-3.826 0.031-5.797 0.351-13.889 2.25-29.484 14.83-41.302 44.911-1.397 3.559-2.613 6.989-3.656 10.298 4.079 3.243 8.807 5.639 14.259 6.986 7.977 1.971 17.527 1.711 28.894-1.395 2.712-0.741 5.244-1.56 7.603-2.446v2.674c-2.18 0.79-4.494 1.524-6.949 2.195-11.795 3.224-21.767 3.479-30.149 1.406-5.479-1.354-10.27-3.698-14.439-6.854-2.659 9.054-3.984 17.162-4.148 24.397v-18.503c0.577-2.461 1.257-4.994 2.044-7.601-0.7-0.607-1.381-1.238-2.044-1.894v-3.629c0.914 1.018 1.868 1.984 2.864 2.897 0.985-3.05 2.113-6.197 3.389-9.445 12.204-31.062 28.569-44.097 43.232-46.472 2.12-0.38 4.19-0.5 6.21-0.42zm0 136.99v2.523c-14.1-1.549-26.78-5.226-36.68-11.603-8.944-5.763-15.61-13.705-19.006-24.239v-15.621c0.036 1.557 0.128 3.07 0.275 4.542 1.524 15.256 8.935 26.025 20.085 33.209 9.5 6.12 21.71 9.67 35.33 11.19zm0 129.35v142.18h-55.683v-142.18h55.683v-0.004zm0 192.51v43.463l-3.562 3.402-3.09 2.951-12.361 11.805-7.453 7.117-7.997 7.637-4.556 4.352 0.811 1.342-1.351 0.815 0.396 1.416-1.518 0.426 0.004 1.47-1.58 0.005-0.389 1.418-1.521-0.417-0.49 0.82c0.515 4.88 0.345 9.834-0.69 14.625-1.478 6.84-4.403 14.494-9.883 19.143-0.15 0.127-0.303 0.249-0.458 0.366v-2.831c1.5-1.449 2.795-3.184 3.531-4.44 4.8-8.189 6.447-17.589 5.487-26.854l-0.67 0.641-0.658-0.688-7.69 4.646v-105.38l10.669-0.029 0.55-2.004 0.188-0.688 23.888 6.551 1.43-2.397 18.96 11.32zm0 130.8v47.02h-24.247l24.25-47.02zm-55.683-361.74v-87.153c17.509 2.713 32.375 15.896 36.35 34.248 5.155 23.799-9.958 47.271-33.758 52.426-0.868 0.185-1.731 0.343-2.595 0.477zm0-269.12v-52.74c3.691 5.079 6.462 11.358 7.811 18.39 2.591 13.51-0.725 26.39-7.811 34.35zm0-52.74v52.74c-3.418 3.842-7.713 6.542-12.647 7.617l-0.009 0.003-0.009 0.002-0.009 0.002-0.009 0.002h-0.002c-0.163 0.036-0.326 0.07-0.49 0.103l-0.01 0.002-0.009 0.002-0.009 0.002-0.009 0.002c-0.171 0.032-0.343 0.062-0.515 0.09l-0.009 0.001-0.01 0.002-0.009 0.001-0.009 0.002c-1.092 0.18-2.185 0.273-3.274 0.29-1.754 20.3-1.162 42.06 3.762 60.074 2.612 9.562 6.442 18.048 11.784 24.66 0.485 0.601 0.983 1.187 1.494 1.756v3.629c-1.208-1.194-2.355-2.467-3.441-3.812-5.58-6.907-9.562-15.704-12.26-25.578-4.992-18.265-5.605-40.29-3.842-60.829-13.223-1.281-25.382-14.12-28.737-31.614-3.887-20.271 5.518-39.112 21.006-42.083 10.115-1.93 20.324 3.39 27.272 12.95zm0 160.48v18.503c-0.023 1.026-0.023 2.035 0 3.026v15.621c-1.077-3.342-1.826-6.944-2.213-10.821-0.767-7.68-0.111-16.42 2.213-26.33zm0 74.23v87.153c-20.85 3.246-40.941-8.801-48.111-28.31l-5.476 1.187c-1.854 0.401-3.699-0.787-4.1-2.641l-0.626-2.889c-0.401-1.854 0.787-3.699 2.64-4.101l5.208-1.128c-2.954-22.507 11.805-43.892 34.388-48.783 5.449-1.18 10.879-1.3 16.077-0.49zm0 125.58v142.18h-58.391v-142.18h58.391v-0.004zm0 179.76v105.38l-7.055 4.262c0.166 0.203 0.24 0.481 0.146 0.816-0.918 3.252-1.459 6.886-1.878 10.233-0.425 3.412-0.968 7.632 0.267 10.944 1.872 5.023 5.588 3.274 8.52 0.44v2.831c-3.465 2.629-7.886 2.629-10.004-1.663-1.689-3.426-1.248-7.915-0.877-11.562 0.391-3.839 1.011-7.988 2.057-11.697 0.195-0.689 0.891-0.84 1.397-0.62l-2.895-4.79-0.923 0.259-0.933-3.331-1.495-2.475h-0.157v-0.261l-2.58-4.27h-0.001l-8.838-14.628h0.001l-2.209-3.657-5.404-8.945-5.643-9.34-0.001 0.001-7.079-11.718-3.968-6.567-1.857-3.074-6.613-10.945-0.368-0.608 21.2-12.809-0.561-2.003-0.192-0.685 23.852-6.682-0.008-2.792 14.099-0.06z" fill-rule="evenodd"/>
			<rect y="11.542" x="19.249" height="142.18" width="222.93" fill="#FFAE00"/>
				<rect y="12.629" x="28.849" height="139.79" width="100.12" fill="#fff"/>
						<circle cy="132" cx="124.66" r="2.598" fill="#726657"/>
						<path d="m126.78 131.35c0-0.429-0.109-0.829-0.29-1.189 0.472 0.469 0.768 1.121 0.768 1.844 0 1.434-1.162 2.597-2.595 2.597-1.003 0-1.871-0.573-2.305-1.405 0.472 0.462 1.114 0.751 1.826 0.751 1.43-0.01 2.59-1.17 2.59-2.6z" fill="#8C8E90"/>
						<circle cy="121.58" cx="124.66" r="2.597" fill="#726657"/>
						<path d="m126.78 120.93c0-0.43-0.109-0.833-0.29-1.191 0.472 0.47 0.768 1.122 0.768 1.844 0 1.434-1.162 2.597-2.595 2.597-1.003 0-1.871-0.573-2.305-1.406 0.472 0.464 1.114 0.752 1.826 0.752 1.43 0 2.59-1.16 2.59-2.59z" fill="#8C8E90"/>
						<circle cy="111.16" cx="124.66" r="2.597" fill="#726657"/>
						<path d="m126.78 110.51c0-0.429-0.109-0.833-0.29-1.191 0.472 0.471 0.768 1.124 0.768 1.845 0 1.434-1.162 2.597-2.595 2.597-1.003 0-1.871-0.573-2.305-1.407 0.472 0.466 1.114 0.751 1.826 0.751 1.43 0 2.59-1.16 2.59-2.59z" fill="#8C8E90"/>
						<circle cy="100.74" cx="124.66" r="2.597" fill="#726657"/>
						<path d="m126.78 100.09c0-0.431-0.109-0.832-0.29-1.192 0.472 0.471 0.768 1.124 0.768 1.844 0 1.434-1.162 2.597-2.595 2.597-1.003 0-1.871-0.572-2.305-1.406 0.472 0.463 1.114 0.751 1.826 0.751 1.43 0.01 2.59-1.15 2.59-2.59z" fill="#8C8E90"/>
						<circle cy="90.327" cx="124.66" r="2.596" fill="#726657"/>
						<path d="m126.78 89.675c0-0.43-0.109-0.834-0.29-1.191 0.472 0.471 0.768 1.122 0.768 1.844 0 1.432-1.162 2.596-2.595 2.596-1.003 0-1.871-0.572-2.305-1.406 0.472 0.464 1.114 0.751 1.826 0.751 1.43-0.001 2.59-1.163 2.59-2.594z" fill="#8C8E90"/>
						<circle cy="79.908" cx="124.66" r="2.597" fill="#726657"/>
						<path d="m126.78 79.255c0-0.428-0.109-0.83-0.29-1.188 0.472 0.468 0.768 1.122 0.768 1.844 0 1.432-1.162 2.595-2.595 2.595-1.003 0-1.871-0.572-2.305-1.406 0.472 0.465 1.114 0.753 1.826 0.753 1.43-0.001 2.59-1.165 2.59-2.598z" fill="#8C8E90"/>
						<circle cy="69.492" cx="124.66" r="2.596" fill="#726657"/>
						<path d="m126.78 68.837c0-0.428-0.109-0.833-0.29-1.189 0.472 0.469 0.768 1.123 0.768 1.843 0 1.434-1.162 2.598-2.595 2.598-1.003 0-1.871-0.572-2.305-1.408 0.472 0.465 1.114 0.751 1.826 0.751 1.43-0.001 2.59-1.161 2.59-2.595z" fill="#8C8E90"/>
						<path d="m124.66 56.476c1.433 0 2.595 1.163 2.595 2.599 0 1.431-1.162 2.595-2.595 2.595s-2.593-1.164-2.593-2.595c0-1.436 1.16-2.599 2.59-2.599z" fill="#726657"/>
						<path d="m126.78 58.419c0-0.43-0.109-0.831-0.29-1.191 0.472 0.47 0.768 1.124 0.768 1.847 0 1.431-1.162 2.595-2.595 2.595-1.003 0-1.871-0.573-2.305-1.406 0.472 0.464 1.114 0.75 1.826 0.75 1.43-0.001 2.59-1.162 2.59-2.595z" fill="#8C8E90"/>
						<circle cy="48.654" cx="124.66" r="2.597" fill="#726657"/>
						<path d="m126.78 48.001c0-0.43-0.109-0.832-0.29-1.191 0.472 0.471 0.768 1.122 0.768 1.844 0 1.433-1.162 2.598-2.595 2.598-1.003 0-1.871-0.573-2.305-1.408 0.472 0.465 1.114 0.753 1.826 0.753 1.43-0.001 2.59-1.164 2.59-2.596z" fill="#8C8E90"/>
						<circle cy="38.235" cx="124.66" r="2.596" fill="#726657"/>
						<path d="m126.78 37.581c0-0.428-0.109-0.83-0.29-1.188 0.472 0.468 0.768 1.124 0.768 1.843 0 1.433-1.162 2.595-2.595 2.595-1.003 0-1.871-0.57-2.305-1.404 0.472 0.464 1.114 0.749 1.826 0.749 1.43 0 2.59-1.159 2.59-2.595z" fill="#8C8E90"/>
						<circle cy="27.817" cx="124.66" r="2.597" fill="#726657"/>
						<path d="m126.78 27.165c0-0.432-0.109-0.834-0.29-1.19 0.472 0.47 0.768 1.122 0.768 1.842 0 1.435-1.162 2.598-2.595 2.598-1.003 0-1.871-0.573-2.305-1.407 0.472 0.465 1.114 0.753 1.826 0.753 1.43-0.001 2.59-1.165 2.59-2.596z" fill="#8C8E90"/>
				<path d="m128.46 26.738h2.402c0.607 0 1.086 0.608 1.086 1.386 0 0.78-0.479 1.385-1.086 1.385h-2.402v-0.725h2.402c0.169 0 0.36-0.282 0.36-0.66 0-0.377-0.191-0.66-0.36-0.66h-2.402v-0.726zm-2.4 0h2.397v0.726h-2.397c-0.172 0-0.365 0.283-0.365 0.66 0 0.378 0.193 0.66 0.365 0.66h2.397v0.725h-2.397c-0.612 0-1.089-0.604-1.089-1.385 0-0.777 0.48-1.386 1.09-1.386z" fill="#343434"/>
				<path d="m128.46 37.087h2.402c0.607 0 1.086 0.609 1.086 1.386 0 0.778-0.479 1.387-1.086 1.387h-2.402v-0.725h2.402c0.169 0 0.36-0.283 0.36-0.662 0-0.375-0.191-0.66-0.36-0.66h-2.402v-0.726zm-2.4 0h2.397v0.726h-2.397c-0.172 0-0.365 0.285-0.365 0.66 0 0.379 0.193 0.662 0.365 0.662h2.397v0.725h-2.397c-0.612 0-1.089-0.608-1.089-1.387 0-0.777 0.48-1.386 1.09-1.386z" fill="#343434"/>
				<path d="m128.46 47.438h2.402c0.607 0 1.086 0.607 1.086 1.386 0 0.777-0.479 1.386-1.086 1.386h-2.402v-0.725h2.402c0.169 0 0.36-0.284 0.36-0.661 0-0.378-0.191-0.661-0.36-0.661h-2.402v-0.725zm-2.4 0h2.397v0.725h-2.397c-0.172 0-0.365 0.283-0.365 0.661 0 0.377 0.193 0.661 0.365 0.661h2.397v0.725h-2.397c-0.612 0-1.089-0.608-1.089-1.386 0-0.779 0.48-1.386 1.09-1.386z" fill="#343434"/>
				<path d="m128.46 57.784h2.402c0.607 0 1.086 0.61 1.086 1.389 0 0.776-0.479 1.385-1.086 1.385h-2.402v-0.724h2.402c0.169 0 0.36-0.285 0.36-0.661 0-0.379-0.191-0.663-0.36-0.663h-2.402v-0.726zm-2.4 0h2.397v0.726h-2.397c-0.172 0-0.365 0.284-0.365 0.663 0 0.376 0.193 0.661 0.365 0.661h2.397v0.724h-2.397c-0.612 0-1.089-0.608-1.089-1.385 0-0.778 0.48-1.389 1.09-1.389z" fill="#343434"/>
				<path d="m128.46 68.135h2.402c0.607 0 1.086 0.609 1.086 1.386 0 0.779-0.479 1.386-1.086 1.386h-2.402v-0.725h2.402c0.169 0 0.36-0.283 0.36-0.661 0-0.377-0.191-0.66-0.36-0.66h-2.402v-0.726zm-2.4 0h2.397v0.726h-2.397c-0.172 0-0.365 0.283-0.365 0.66 0 0.378 0.193 0.661 0.365 0.661h2.397v0.725h-2.397c-0.612 0-1.089-0.606-1.089-1.386 0-0.777 0.48-1.386 1.09-1.386z" fill="#343434"/>
				<path d="m128.46 78.483h2.402c0.607 0 1.086 0.61 1.086 1.386 0 0.779-0.479 1.386-1.086 1.386h-2.402v-0.725h2.402c0.169 0 0.36-0.282 0.36-0.661 0-0.378-0.191-0.661-0.36-0.661h-2.402v-0.725zm-2.4 0h2.397v0.725h-2.397c-0.172 0-0.365 0.283-0.365 0.661 0 0.379 0.193 0.661 0.365 0.661h2.397v0.725h-2.397c-0.612 0-1.089-0.606-1.089-1.386 0-0.775 0.48-1.386 1.09-1.386z" fill="#343434"/>
				<path d="m128.46 88.832h2.402c0.607 0 1.086 0.61 1.086 1.387s-0.479 1.386-1.086 1.386h-2.402v-0.725h2.402c0.169 0 0.36-0.283 0.36-0.661 0-0.377-0.191-0.66-0.36-0.66h-2.402v-0.727zm-2.4 0h2.397v0.727h-2.397c-0.172 0-0.365 0.283-0.365 0.66 0 0.378 0.193 0.661 0.365 0.661h2.397v0.725h-2.397c-0.612 0-1.089-0.608-1.089-1.386 0-0.777 0.48-1.387 1.09-1.387z" fill="#343434"/>
				<path d="m128.46 99.182h2.402c0.607 0 1.086 0.609 1.086 1.387s-0.479 1.386-1.086 1.386h-2.402v-0.725h2.402c0.169 0 0.36-0.283 0.36-0.661 0-0.379-0.191-0.66-0.36-0.66h-2.402v-0.738zm-2.4 0h2.397v0.727h-2.397c-0.172 0-0.365 0.281-0.365 0.66 0 0.378 0.193 0.661 0.365 0.661h2.397v0.725h-2.397c-0.612 0-1.089-0.607-1.089-1.386s0.48-1.388 1.09-1.388z" fill="#343434"/>
				<path d="m128.46 109.53h2.402c0.607 0 1.086 0.608 1.086 1.387s-0.479 1.385-1.086 1.385h-2.402v-0.725h2.402c0.169 0 0.36-0.282 0.36-0.66 0-0.379-0.191-0.66-0.36-0.66h-2.402v-0.73zm-2.4 0h2.397v0.727h-2.397c-0.172 0-0.365 0.281-0.365 0.66 0 0.378 0.193 0.66 0.365 0.66h2.397v0.725h-2.397c-0.612 0-1.089-0.606-1.089-1.385s0.48-1.39 1.09-1.39z" fill="#343434"/>
				<path d="m128.46 119.88h2.402c0.607 0 1.086 0.61 1.086 1.388s-0.479 1.385-1.086 1.385h-2.402v-0.724h2.402c0.169 0 0.36-0.282 0.36-0.661 0-0.378-0.191-0.661-0.36-0.661h-2.402v-0.74zm-2.4 0h2.397v0.727h-2.397c-0.172 0-0.365 0.283-0.365 0.661 0 0.379 0.193 0.661 0.365 0.661h2.397v0.724h-2.397c-0.612 0-1.089-0.606-1.089-1.385 0-0.77 0.48-1.38 1.09-1.38z" fill="#343434"/>
				<path d="m128.46 130.23h2.402c0.607 0 1.086 0.608 1.086 1.387s-0.479 1.385-1.086 1.385h-2.402v-0.724h2.402c0.169 0 0.36-0.283 0.36-0.661s-0.191-0.66-0.36-0.66h-2.402v-0.73zm-2.4 0h2.397v0.727h-2.397c-0.172 0-0.365 0.282-0.365 0.66s0.193 0.661 0.365 0.661h2.397v0.724h-2.397c-0.612 0-1.089-0.605-1.089-1.385s0.48-1.39 1.09-1.39z" fill="#343434"/>
				<rect y="34.582" x="38.755" height=".216" width="81.805" fill="#5D5E60"/>
				<rect y="39.541" x="38.755" height=".214" width="81.805" fill="#5D5E60"/>
				<rect y="44.498" x="38.755" height=".213" width="81.805" fill="#5D5E60"/>
				<rect y="49.457" x="38.755" height=".21" width="81.805" fill="#5D5E60"/>
				<rect y="54.413" x="38.755" height=".216" width="81.805" fill="#5D5E60"/>
				<rect y="59.37" x="38.755" height=".216" width="81.805" fill="#5D5E60"/>
				<rect y="64.329" x="38.755" height=".214" width="81.805" fill="#5D5E60"/>
				<rect y="69.285" x="38.755" height=".216" width="81.805" fill="#5D5E60"/>
				<rect y="74.245" x="38.755" height=".21" width="81.805" fill="#5D5E60"/>
				<rect y="79.203" x="38.755" height=".214" width="81.805" fill="#5D5E60"/>
				<rect y="84.159" x="38.755" height=".213" width="81.805" fill="#5D5E60"/>
				<rect y="89.121" x="38.755" height=".21" width="81.805" fill="#5D5E60"/>
				<rect y="94.076" x="38.755" height=".213" width="81.805" fill="#5D5E60"/>
				<rect y="99.031" x="38.755" height=".216" width="81.805" fill="#5D5E60"/>
				<rect y="103.99" x="38.755" height=".215" width="81.805" fill="#5D5E60"/>
				<rect y="108.95" x="38.755" height=".21" width="81.805" fill="#5D5E60"/>
				<rect y="113.91" x="38.755" height=".212" width="81.805" fill="#5D5E60"/>
				<rect y="118.86" x="38.755" height=".215" width="81.805" fill="#5D5E60"/>
				<rect y="123.82" x="38.755" height=".214" width="81.805" fill="#5D5E60"/>
				<rect y="128.78" x="38.755" height=".214" width="81.805" fill="#5D5E60"/>
				<rect y="133.74" x="54.454" height=".213" width="66.107" fill="#5D5E60"/>
			<path d="m229.34 44.807h2.449c3.816 0 6.908-2.648 6.908-5.915v-20.346c0-3.269-3.092-5.917-6.908-5.917h-2.449v32.178z" fill="#2C577D"/>
			<path d="m229.34 67.742h2.449c3.816 0 6.908-2.647 6.908-5.916v-20.342c0-3.27-3.092-5.919-6.908-5.919h-2.449v32.177z" fill="#DA4622"/>
			<path d="m229.34 90.53h2.449c3.816 0 6.908-2.649 6.908-5.916v-20.344c0-3.267-3.092-5.916-6.908-5.916h-2.449v32.176z" fill="#FFCF66"/>
				<rect y="12.629" x="130.58" height="139.79" width="100.12" fill="#B3B3B3"/>
				<polygon points="230.71 12.629 130.58 12.629 130.58 152.42 204.59 152.42 230.71 135.48" fill="#fff"/>
				<path d="m204.59 152.42s7.088-7.325 5.743-17.5c0 0 11.579 3.531 20.376 0.568l-26.12 16.93z" fill="#E6E6E6"/>
						<path d="m134.9 129.4c-1.435 0-2.597 1.166-2.597 2.599 0 1.434 1.163 2.597 2.597 2.597 1.43 0 2.592-1.163 2.592-2.597 0-1.43-1.17-2.6-2.59-2.6z" fill="#726657"/>
						<path d="m132.78 131.35c0-0.429 0.109-0.829 0.29-1.189-0.469 0.469-0.768 1.121-0.768 1.844 0 1.434 1.163 2.597 2.597 2.597 1.002 0 1.871-0.573 2.302-1.405-0.469 0.462-1.113 0.751-1.825 0.751-1.44-0.01-2.6-1.17-2.6-2.6z" fill="#8C8E90"/>
						<path d="m134.9 118.98c-1.435 0-2.597 1.163-2.597 2.597s1.163 2.597 2.597 2.597c1.43 0 2.592-1.163 2.592-2.597s-1.17-2.6-2.59-2.6z" fill="#726657"/>
						<path d="m132.78 120.93c0-0.43 0.109-0.833 0.29-1.191-0.469 0.47-0.768 1.122-0.768 1.844 0 1.434 1.163 2.597 2.597 2.597 1.002 0 1.871-0.573 2.302-1.406-0.469 0.464-1.113 0.752-1.825 0.752-1.44 0-2.6-1.16-2.6-2.59z" fill="#8C8E90"/>
						<path d="m134.9 108.57c-1.435 0-2.597 1.166-2.597 2.598 0 1.434 1.163 2.597 2.597 2.597 1.43 0 2.592-1.163 2.592-2.597 0-1.44-1.17-2.6-2.59-2.6z" fill="#726657"/>
						<path d="m132.78 110.51c0-0.429 0.109-0.833 0.29-1.191-0.469 0.471-0.768 1.124-0.768 1.845 0 1.434 1.163 2.597 2.597 2.597 1.002 0 1.871-0.573 2.302-1.407-0.469 0.466-1.113 0.751-1.825 0.751-1.44 0-2.6-1.16-2.6-2.59z" fill="#8C8E90"/>
						<path d="m134.9 98.148c-1.435 0-2.597 1.164-2.597 2.597 0 1.434 1.163 2.597 2.597 2.597 1.43 0 2.592-1.163 2.592-2.597 0-1.428-1.17-2.592-2.59-2.592z" fill="#726657"/>
						<path d="m132.78 100.09c0-0.431 0.109-0.832 0.29-1.192-0.469 0.471-0.768 1.124-0.768 1.844 0 1.434 1.163 2.597 2.597 2.597 1.002 0 1.871-0.572 2.302-1.406-0.469 0.463-1.113 0.751-1.825 0.751-1.44 0.01-2.6-1.15-2.6-2.59z" fill="#8C8E90"/>
						<path d="m134.9 87.73c-1.435 0-2.597 1.163-2.597 2.597 0 1.432 1.163 2.596 2.597 2.596 1.43 0 2.592-1.164 2.592-2.596 0-1.433-1.17-2.597-2.59-2.597z" fill="#726657"/>
						<path d="m132.78 89.675c0-0.43 0.109-0.834 0.29-1.191-0.469 0.471-0.768 1.122-0.768 1.844 0 1.432 1.163 2.596 2.597 2.596 1.002 0 1.871-0.572 2.302-1.406-0.469 0.464-1.113 0.751-1.825 0.751-1.44-0.001-2.6-1.163-2.6-2.594z" fill="#8C8E90"/>
						<path d="m134.9 77.312c-1.435 0-2.597 1.165-2.597 2.599 0 1.432 1.163 2.595 2.597 2.595 1.43 0 2.592-1.163 2.592-2.595 0-1.434-1.17-2.599-2.59-2.599z" fill="#726657"/>
						<path d="m132.78 79.255c0-0.428 0.109-0.83 0.29-1.188-0.469 0.468-0.768 1.122-0.768 1.844 0 1.432 1.163 2.595 2.597 2.595 1.002 0 1.871-0.572 2.302-1.406-0.469 0.465-1.113 0.753-1.825 0.753-1.44-0.001-2.6-1.165-2.6-2.598z" fill="#8C8E90"/>
						<path d="m134.9 66.896c-1.435 0-2.597 1.161-2.597 2.595s1.163 2.598 2.597 2.598c1.43 0 2.592-1.164 2.592-2.598s-1.17-2.595-2.59-2.595z" fill="#726657"/>
						<path d="m132.78 68.837c0-0.428 0.109-0.833 0.29-1.189-0.469 0.469-0.768 1.123-0.768 1.843 0 1.434 1.163 2.598 2.597 2.598 1.002 0 1.871-0.572 2.302-1.408-0.469 0.465-1.113 0.751-1.825 0.751-1.44-0.001-2.6-1.161-2.6-2.595z" fill="#8C8E90"/>
						<path d="m134.9 56.476c-1.435 0-2.597 1.163-2.597 2.599 0 1.431 1.163 2.595 2.597 2.595 1.43 0 2.592-1.164 2.592-2.595 0-1.436-1.17-2.599-2.59-2.599z" fill="#726657"/>
						<path d="m132.78 58.419c0-0.43 0.109-0.831 0.29-1.191-0.469 0.47-0.768 1.124-0.768 1.847 0 1.431 1.163 2.595 2.597 2.595 1.002 0 1.871-0.573 2.302-1.406-0.469 0.464-1.113 0.75-1.825 0.75-1.44-0.001-2.6-1.162-2.6-2.595z" fill="#8C8E90"/>
						<path d="m134.9 46.057c-1.435 0-2.597 1.163-2.597 2.597 0 1.433 1.163 2.598 2.597 2.598 1.43 0 2.592-1.165 2.592-2.598 0-1.434-1.17-2.597-2.59-2.597z" fill="#726657"/>
						<path d="m132.78 48.001c0-0.43 0.109-0.832 0.29-1.191-0.469 0.471-0.768 1.122-0.768 1.844 0 1.433 1.163 2.598 2.597 2.598 1.002 0 1.871-0.573 2.302-1.408-0.469 0.465-1.113 0.753-1.825 0.753-1.44-0.001-2.6-1.164-2.6-2.596z" fill="#8C8E90"/>
						<path d="m134.9 35.64c-1.435 0-2.597 1.164-2.597 2.597s1.163 2.595 2.597 2.595c1.43 0 2.592-1.162 2.592-2.595s-1.17-2.597-2.59-2.597z" fill="#726657"/>
						<path d="m132.78 37.581c0-0.428 0.109-0.83 0.29-1.188-0.469 0.468-0.768 1.124-0.768 1.843 0 1.433 1.163 2.595 2.597 2.595 1.002 0 1.871-0.57 2.302-1.404-0.469 0.464-1.113 0.749-1.825 0.749-1.44 0-2.6-1.159-2.6-2.595z" fill="#8C8E90"/>
						<path d="m134.9 25.221c-1.435 0-2.597 1.164-2.597 2.596 0 1.435 1.163 2.598 2.597 2.598 1.43 0 2.592-1.163 2.592-2.598 0-1.432-1.17-2.596-2.59-2.596z" fill="#726657"/>
						<path d="m132.78 27.165c0-0.432 0.109-0.834 0.29-1.19-0.469 0.47-0.768 1.122-0.768 1.842 0 1.435 1.163 2.598 2.597 2.598 1.002 0 1.871-0.573 2.302-1.407-0.469 0.465-1.113 0.753-1.825 0.753-1.44-0.001-2.6-1.165-2.6-2.596z" fill="#8C8E90"/>
				<path d="m134.58 28.124c0 0.78-0.479 1.385-1.091 1.385h-2.396v-0.725h2.396c0.174 0 0.366-0.282 0.366-0.66 0-0.377-0.192-0.66-0.366-0.66h-2.396v-0.726h2.396c0.62 0 1.09 0.609 1.09 1.386zm-3.48 1.385h-2.401c-0.609 0-1.088-0.604-1.088-1.385 0-0.777 0.479-1.386 1.088-1.386h2.401v0.726h-2.401c-0.169 0-0.361 0.283-0.361 0.66 0 0.378 0.192 0.66 0.361 0.66h2.401v0.725z" fill="#343434"/>
				<path d="m134.58 38.473c0 0.778-0.479 1.387-1.091 1.387h-2.396v-0.725h2.396c0.174 0 0.366-0.283 0.366-0.662 0-0.375-0.192-0.66-0.366-0.66h-2.396v-0.726h2.396c0.62 0 1.09 0.609 1.09 1.386zm-3.48 1.386h-2.401c-0.609 0-1.088-0.608-1.088-1.387 0-0.776 0.479-1.386 1.088-1.386h2.401v0.726h-2.401c-0.169 0-0.361 0.285-0.361 0.66 0 0.379 0.192 0.662 0.361 0.662h2.401v0.725z" fill="#343434"/>
				<path d="m134.58 48.823c0 0.777-0.479 1.386-1.091 1.386h-2.396v-0.725h2.396c0.174 0 0.366-0.284 0.366-0.661 0-0.378-0.192-0.661-0.366-0.661h-2.396v-0.725h2.396c0.62 0.001 1.09 0.608 1.09 1.386zm-3.48 1.386h-2.401c-0.609 0-1.088-0.608-1.088-1.386s0.479-1.386 1.088-1.386h2.401v0.725h-2.401c-0.169 0-0.361 0.283-0.361 0.661 0 0.377 0.192 0.661 0.361 0.661h2.401v0.725z" fill="#343434"/>
				<path d="m134.58 59.173c0 0.776-0.479 1.385-1.091 1.385h-2.396v-0.724h2.396c0.174 0 0.366-0.285 0.366-0.661 0-0.379-0.192-0.663-0.366-0.663h-2.396v-0.726h2.396c0.62 0 1.09 0.611 1.09 1.389zm-3.48 1.385h-2.401c-0.609 0-1.088-0.608-1.088-1.385 0-0.778 0.479-1.389 1.088-1.389h2.401v0.726h-2.401c-0.169 0-0.361 0.284-0.361 0.663 0 0.376 0.192 0.661 0.361 0.661h2.401v0.724z" fill="#343434"/>
				<path d="m134.58 69.521c0 0.779-0.479 1.386-1.091 1.386h-2.396v-0.725h2.396c0.174 0 0.366-0.283 0.366-0.661 0-0.377-0.192-0.66-0.366-0.66h-2.396v-0.726h2.396c0.62 0 1.09 0.609 1.09 1.386zm-3.48 1.385h-2.401c-0.609 0-1.088-0.606-1.088-1.386 0-0.776 0.479-1.386 1.088-1.386h2.401v0.726h-2.401c-0.169 0-0.361 0.283-0.361 0.66 0 0.378 0.192 0.661 0.361 0.661h2.401v0.725z" fill="#343434"/>
				<path d="m134.58 79.869c0 0.779-0.479 1.386-1.091 1.386h-2.396v-0.725h2.396c0.174 0 0.366-0.282 0.366-0.661 0-0.378-0.192-0.661-0.366-0.661h-2.396v-0.725h2.396c0.62 0 1.09 0.611 1.09 1.386zm-3.48 1.386h-2.401c-0.609 0-1.088-0.606-1.088-1.386 0-0.775 0.479-1.386 1.088-1.386h2.401v0.725h-2.401c-0.169 0-0.361 0.283-0.361 0.661 0 0.379 0.192 0.661 0.361 0.661h2.401v0.725z" fill="#343434"/>
				<path d="m134.58 90.219c0 0.777-0.479 1.386-1.091 1.386h-2.396v-0.725h2.396c0.174 0 0.366-0.283 0.366-0.661 0-0.377-0.192-0.66-0.366-0.66h-2.396v-0.727h2.396c0.62 0 1.09 0.61 1.09 1.387zm-3.48 1.385h-2.401c-0.609 0-1.088-0.608-1.088-1.386 0-0.776 0.479-1.387 1.088-1.387h2.401v0.727h-2.401c-0.169 0-0.361 0.283-0.361 0.66 0 0.378 0.192 0.661 0.361 0.661h2.401v0.725z" fill="#343434"/>
				<path d="m134.58 100.57c0 0.778-0.479 1.386-1.091 1.386h-2.396v-0.725h2.396c0.174 0 0.366-0.283 0.366-0.661 0-0.379-0.192-0.66-0.366-0.66h-2.396v-0.727h2.396c0.62-0.011 1.09 0.598 1.09 1.377zm-3.48 1.38h-2.401c-0.609 0-1.088-0.607-1.088-1.386 0-0.777 0.479-1.387 1.088-1.387h2.401v0.727h-2.401c-0.169 0-0.361 0.281-0.361 0.66 0 0.378 0.192 0.661 0.361 0.661h2.401v0.73z" fill="#343434"/>
				<path d="m134.58 110.92c0 0.778-0.479 1.385-1.091 1.385h-2.396v-0.725h2.396c0.174 0 0.366-0.282 0.366-0.66 0-0.379-0.192-0.66-0.366-0.66h-2.396v-0.727h2.396c0.62 0 1.09 0.61 1.09 1.39zm-3.48 1.38h-2.401c-0.609 0-1.088-0.606-1.088-1.385s0.479-1.387 1.088-1.387h2.401v0.727h-2.401c-0.169 0-0.361 0.281-0.361 0.66 0 0.378 0.192 0.66 0.361 0.66h2.401v0.72z" fill="#343434"/>
				<path d="m134.58 121.27c0 0.778-0.479 1.385-1.091 1.385h-2.396v-0.724h2.396c0.174 0 0.366-0.282 0.366-0.661 0-0.378-0.192-0.661-0.366-0.661h-2.396v-0.727h2.396c0.62-0.01 1.09 0.6 1.09 1.38zm-3.48 1.38h-2.401c-0.609 0-1.088-0.606-1.088-1.385 0-0.777 0.479-1.388 1.088-1.388h2.401v0.727h-2.401c-0.169 0-0.361 0.283-0.361 0.661 0 0.379 0.192 0.661 0.361 0.661h2.401v0.73z" fill="#343434"/>
				<path d="m134.58 131.62c0 0.779-0.479 1.385-1.091 1.385h-2.396v-0.724h2.396c0.174 0 0.366-0.283 0.366-0.661s-0.192-0.66-0.366-0.66h-2.396v-0.727h2.396c0.62 0 1.09 0.61 1.09 1.39zm-3.48 1.38h-2.401c-0.609 0-1.088-0.605-1.088-1.385 0-0.778 0.479-1.387 1.088-1.387h2.401v0.727h-2.401c-0.169 0-0.361 0.282-0.361 0.66s0.192 0.661 0.361 0.661h2.401v0.72z" fill="#343434"/>
				<rect y="34.582" x="139" height=".216" width="81.805" fill="#5D5E60"/>
				<rect y="39.541" x="139" height=".214" width="81.805" fill="#5D5E60"/>
				<rect y="44.498" x="139" height=".213" width="81.805" fill="#5D5E60"/>
				<rect y="49.457" x="139" height=".21" width="81.805" fill="#5D5E60"/>
				<rect y="54.413" x="139" height=".216" width="81.805" fill="#5D5E60"/>
				<rect y="59.37" x="139" height=".216" width="81.805" fill="#5D5E60"/>
				<rect y="64.329" x="139" height=".214" width="81.805" fill="#5D5E60"/>
				<rect y="69.285" x="139" height=".216" width="81.805" fill="#5D5E60"/>
				<rect y="74.245" x="139" height=".21" width="81.805" fill="#5D5E60"/>
				<rect y="79.203" x="139" height=".214" width="81.805" fill="#5D5E60"/>
				<rect y="84.159" x="139" height=".213" width="81.805" fill="#5D5E60"/>
				<rect y="89.121" x="139" height=".21" width="81.805" fill="#5D5E60"/>
				<rect y="94.076" x="139" height=".213" width="81.805" fill="#5D5E60"/>
				<rect y="99.031" x="139" height=".216" width="81.805" fill="#5D5E60"/>
				<rect y="103.99" x="139" height=".215" width="81.805" fill="#5D5E60"/>
				<rect y="108.95" x="139" height=".21" width="81.805" fill="#5D5E60"/>
				<rect y="113.91" x="139" height=".212" width="81.805" fill="#5D5E60"/>
				<rect y="118.86" x="139" height=".215" width="81.805" fill="#5D5E60"/>
				<rect y="123.82" x="139" height=".214" width="81.805" fill="#5D5E60"/>
				<rect y="128.78" x="139" height=".214" width="81.805" fill="#5D5E60"/>
				<rect y="133.74" x="139" height=".213" width="66.105" fill="#5D5E60"/>
	<rect id="_x3C_Slice_x3E__1_" fill-rule="evenodd" height="177" width="265" clip-rule="evenodd" x="-3" fill="none"/>
</g>
</svg>
